<svg width="40" height="38" viewBox="0 0 40 38" fill="none" xmlns="http://www.w3.org/2000/svg">
<g clip-path="url(#clip0_2362_283)">
<mask id="path-1-inside-1_2362_283" fill="white">
<path d="M20 26.125C18.0109 26.125 16.1032 25.3743 14.6967 24.0381C13.2902 22.7019 12.5 20.8897 12.5 19C12.5 17.1103 13.2902 15.2981 14.6967 13.9619C16.1032 12.6257 18.0109 11.875 20 11.875C21.9891 11.875 23.8968 12.6257 25.3033 13.9619C26.7098 15.2981 27.5 17.1103 27.5 19C27.5 20.8897 26.7098 22.7019 25.3033 24.0381C23.8968 25.3743 21.9891 26.125 20 26.125ZM20 28.5C22.6522 28.5 25.1957 27.4991 27.0711 25.7175C28.9464 23.9359 30 21.5196 30 19C30 16.4804 28.9464 14.0641 27.0711 12.2825C25.1957 10.5009 22.6522 9.5 20 9.5C17.3478 9.5 14.8043 10.5009 12.9289 12.2825C11.0536 14.0641 10 16.4804 10 19C10 21.5196 11.0536 23.9359 12.9289 25.7175C14.8043 27.4991 17.3478 28.5 20 28.5ZM20 0C20.3315 0 20.6495 0.125111 20.8839 0.347811C21.1183 0.57051 21.25 0.872555 21.25 1.1875V5.9375C21.25 6.25244 21.1183 6.55449 20.8839 6.77719C20.6495 6.99989 20.3315 7.125 20 7.125C19.6685 7.125 19.3505 6.99989 19.1161 6.77719C18.8817 6.55449 18.75 6.25244 18.75 5.9375V1.1875C18.75 0.872555 18.8817 0.57051 19.1161 0.347811C19.3505 0.125111 19.6685 0 20 0ZM20 30.875C20.3315 30.875 20.6495 31.0001 20.8839 31.2228C21.1183 31.4455 21.25 31.7476 21.25 32.0625V36.8125C21.25 37.1274 21.1183 37.4295 20.8839 37.6522C20.6495 37.8749 20.3315 38 20 38C19.6685 38 19.3505 37.8749 19.1161 37.6522C18.8817 37.4295 18.75 37.1274 18.75 36.8125V32.0625C18.75 31.7476 18.8817 31.4455 19.1161 31.2228C19.3505 31.0001 19.6685 30.875 20 30.875ZM40 19C40 19.3149 39.8683 19.617 39.6339 19.8397C39.3995 20.0624 39.0815 20.1875 38.75 20.1875H33.75C33.4185 20.1875 33.1005 20.0624 32.8661 19.8397C32.6317 19.617 32.5 19.3149 32.5 19C32.5 18.6851 32.6317 18.383 32.8661 18.1603C33.1005 17.9376 33.4185 17.8125 33.75 17.8125H38.75C39.0815 17.8125 39.3995 17.9376 39.6339 18.1603C39.8683 18.383 40 18.6851 40 19ZM7.5 19C7.5 19.3149 7.3683 19.617 7.13388 19.8397C6.89946 20.0624 6.58152 20.1875 6.25 20.1875H1.25C0.918479 20.1875 0.600537 20.0624 0.366117 19.8397C0.131696 19.617 0 19.3149 0 19C0 18.6851 0.131696 18.383 0.366117 18.1603C0.600537 17.9376 0.918479 17.8125 1.25 17.8125H6.25C6.58152 17.8125 6.89946 17.9376 7.13388 18.1603C7.3683 18.383 7.5 18.6851 7.5 19ZM34.1425 5.56462C34.3768 5.78731 34.5085 6.08931 34.5085 6.40419C34.5085 6.71907 34.3768 7.02106 34.1425 7.24375L30.6075 10.6044C30.4913 10.7146 30.3533 10.8021 30.2016 10.8617C30.0498 10.9213 29.8871 10.9519 29.7229 10.9518C29.3912 10.9516 29.0731 10.8262 28.8387 10.6032C28.7227 10.4928 28.6307 10.3617 28.5679 10.2175C28.5052 10.0733 28.4729 9.91882 28.4731 9.76278C28.4733 9.44767 28.6053 9.14554 28.84 8.92287L32.375 5.56462C32.6094 5.342 32.9273 5.21694 33.2588 5.21694C33.5902 5.21694 33.9081 5.342 34.1425 5.56462ZM11.16 27.398C11.3943 27.6207 11.526 27.9227 11.526 28.2376C11.526 28.5524 11.3943 28.8544 11.16 29.0771L7.625 32.4354C7.38925 32.6517 7.07349 32.7714 6.74575 32.7687C6.418 32.766 6.10449 32.6411 5.87273 32.4209C5.64097 32.2007 5.50951 31.9029 5.50666 31.5915C5.50381 31.2802 5.6298 30.9802 5.8575 30.7563L9.3925 27.398C9.62691 27.1754 9.94479 27.0503 10.2762 27.0503C10.6077 27.0503 10.9256 27.1754 11.16 27.398ZM34.1425 32.4354C33.9081 32.658 33.5902 32.7831 33.2588 32.7831C32.9273 32.7831 32.6094 32.658 32.375 32.4354L28.84 29.0771C28.6123 28.8532 28.4863 28.5532 28.4892 28.2418C28.492 27.9305 28.6235 27.6326 28.8552 27.4125C29.087 27.1923 29.4005 27.0674 29.7282 27.0647C30.056 27.062 30.3717 27.1817 30.6075 27.398L34.1425 30.7563C34.3768 30.9789 34.5085 31.2809 34.5085 31.5958C34.5085 31.9107 34.3768 32.2127 34.1425 32.4354ZM11.16 10.6044C10.9256 10.827 10.6077 10.9521 10.2762 10.9521C9.94479 10.9521 9.62691 10.827 9.3925 10.6044L5.8575 7.24375C5.73811 7.13421 5.64288 7.00317 5.57737 6.85829C5.51186 6.71341 5.47738 6.55759 5.47594 6.39991C5.47449 6.24224 5.50612 6.08587 5.56897 5.93993C5.63182 5.79399 5.72464 5.6614 5.84201 5.54991C5.95937 5.43841 6.09894 5.35023 6.25256 5.29052C6.40618 5.23082 6.57078 5.20077 6.73675 5.20214C6.90273 5.20351 7.06675 5.23627 7.21926 5.2985C7.37176 5.36074 7.50969 5.45121 7.625 5.56462L11.16 8.92287C11.2764 9.03318 11.3688 9.16423 11.4318 9.3085C11.4948 9.45276 11.5272 9.60743 11.5272 9.76363C11.5272 9.91982 11.4948 10.0745 11.4318 10.2188C11.3688 10.363 11.2764 10.4941 11.16 10.6044Z"/>
</mask>
<path d="M20 26.125C18.0109 26.125 16.1032 25.3743 14.6967 24.0381C13.2902 22.7019 12.5 20.8897 12.5 19C12.5 17.1103 13.2902 15.2981 14.6967 13.9619C16.1032 12.6257 18.0109 11.875 20 11.875C21.9891 11.875 23.8968 12.6257 25.3033 13.9619C26.7098 15.2981 27.5 17.1103 27.5 19C27.5 20.8897 26.7098 22.7019 25.3033 24.0381C23.8968 25.3743 21.9891 26.125 20 26.125ZM20 28.5C22.6522 28.5 25.1957 27.4991 27.0711 25.7175C28.9464 23.9359 30 21.5196 30 19C30 16.4804 28.9464 14.0641 27.0711 12.2825C25.1957 10.5009 22.6522 9.5 20 9.5C17.3478 9.5 14.8043 10.5009 12.9289 12.2825C11.0536 14.0641 10 16.4804 10 19C10 21.5196 11.0536 23.9359 12.9289 25.7175C14.8043 27.4991 17.3478 28.5 20 28.5ZM20 0C20.3315 0 20.6495 0.125111 20.8839 0.347811C21.1183 0.57051 21.25 0.872555 21.25 1.1875V5.9375C21.25 6.25244 21.1183 6.55449 20.8839 6.77719C20.6495 6.99989 20.3315 7.125 20 7.125C19.6685 7.125 19.3505 6.99989 19.1161 6.77719C18.8817 6.55449 18.75 6.25244 18.75 5.9375V1.1875C18.75 0.872555 18.8817 0.57051 19.1161 0.347811C19.3505 0.125111 19.6685 0 20 0ZM20 30.875C20.3315 30.875 20.6495 31.0001 20.8839 31.2228C21.1183 31.4455 21.25 31.7476 21.25 32.0625V36.8125C21.25 37.1274 21.1183 37.4295 20.8839 37.6522C20.6495 37.8749 20.3315 38 20 38C19.6685 38 19.3505 37.8749 19.1161 37.6522C18.8817 37.4295 18.75 37.1274 18.75 36.8125V32.0625C18.75 31.7476 18.8817 31.4455 19.1161 31.2228C19.3505 31.0001 19.6685 30.875 20 30.875ZM40 19C40 19.3149 39.8683 19.617 39.6339 19.8397C39.3995 20.0624 39.0815 20.1875 38.75 20.1875H33.75C33.4185 20.1875 33.1005 20.0624 32.8661 19.8397C32.6317 19.617 32.5 19.3149 32.5 19C32.5 18.6851 32.6317 18.383 32.8661 18.1603C33.1005 17.9376 33.4185 17.8125 33.75 17.8125H38.75C39.0815 17.8125 39.3995 17.9376 39.6339 18.1603C39.8683 18.383 40 18.6851 40 19ZM7.5 19C7.5 19.3149 7.3683 19.617 7.13388 19.8397C6.89946 20.0624 6.58152 20.1875 6.25 20.1875H1.25C0.918479 20.1875 0.600537 20.0624 0.366117 19.8397C0.131696 19.617 0 19.3149 0 19C0 18.6851 0.131696 18.383 0.366117 18.1603C0.600537 17.9376 0.918479 17.8125 1.25 17.8125H6.25C6.58152 17.8125 6.89946 17.9376 7.13388 18.1603C7.3683 18.383 7.5 18.6851 7.5 19ZM34.1425 5.56462C34.3768 5.78731 34.5085 6.08931 34.5085 6.40419C34.5085 6.71907 34.3768 7.02106 34.1425 7.24375L30.6075 10.6044C30.4913 10.7146 30.3533 10.8021 30.2016 10.8617C30.0498 10.9213 29.8871 10.9519 29.7229 10.9518C29.3912 10.9516 29.0731 10.8262 28.8387 10.6032C28.7227 10.4928 28.6307 10.3617 28.5679 10.2175C28.5052 10.0733 28.4729 9.91882 28.4731 9.76278C28.4733 9.44767 28.6053 9.14554 28.84 8.92287L32.375 5.56462C32.6094 5.342 32.9273 5.21694 33.2588 5.21694C33.5902 5.21694 33.9081 5.342 34.1425 5.56462ZM11.16 27.398C11.3943 27.6207 11.526 27.9227 11.526 28.2376C11.526 28.5524 11.3943 28.8544 11.16 29.0771L7.625 32.4354C7.38925 32.6517 7.07349 32.7714 6.74575 32.7687C6.418 32.766 6.10449 32.6411 5.87273 32.4209C5.64097 32.2007 5.50951 31.9029 5.50666 31.5915C5.50381 31.2802 5.6298 30.9802 5.8575 30.7563L9.3925 27.398C9.62691 27.1754 9.94479 27.0503 10.2762 27.0503C10.6077 27.0503 10.9256 27.1754 11.16 27.398ZM34.1425 32.4354C33.9081 32.658 33.5902 32.7831 33.2588 32.7831C32.9273 32.7831 32.6094 32.658 32.375 32.4354L28.84 29.0771C28.6123 28.8532 28.4863 28.5532 28.4892 28.2418C28.492 27.9305 28.6235 27.6326 28.8552 27.4125C29.087 27.1923 29.4005 27.0674 29.7282 27.0647C30.056 27.062 30.3717 27.1817 30.6075 27.398L34.1425 30.7563C34.3768 30.9789 34.5085 31.2809 34.5085 31.5958C34.5085 31.9107 34.3768 32.2127 34.1425 32.4354ZM11.16 10.6044C10.9256 10.827 10.6077 10.9521 10.2762 10.9521C9.94479 10.9521 9.62691 10.827 9.3925 10.6044L5.8575 7.24375C5.73811 7.13421 5.64288 7.00317 5.57737 6.85829C5.51186 6.71341 5.47738 6.55759 5.47594 6.39991C5.47449 6.24224 5.50612 6.08587 5.56897 5.93993C5.63182 5.79399 5.72464 5.6614 5.84201 5.54991C5.95937 5.43841 6.09894 5.35023 6.25256 5.29052C6.40618 5.23082 6.57078 5.20077 6.73675 5.20214C6.90273 5.20351 7.06675 5.23627 7.21926 5.2985C7.37176 5.36074 7.50969 5.45121 7.625 5.56462L11.16 8.92287C11.2764 9.03318 11.3688 9.16423 11.4318 9.3085C11.4948 9.45276 11.5272 9.60743 11.5272 9.76363C11.5272 9.91982 11.4948 10.0745 11.4318 10.2188C11.3688 10.363 11.2764 10.4941 11.16 10.6044Z" fill="black" stroke="white" stroke-width="20" mask="url(#path-1-inside-1_2362_283)"/>
</g>
<defs>
<clipPath id="clip0_2362_283">
<rect width="40" height="38" fill="white"/>
</clipPath>
</defs>
</svg>
