<svg width="32" height="32" viewBox="0 0 32 32" fill="none" xmlns="http://www.w3.org/2000/svg">
<g clip-path="url(#clip0_2375_319)">
<path d="M28.531 23.599C25.864 27.068 27.198 30 28.136 31.47C28.531 32.001 28 32.001 27.735 32.001C26.6453 31.803 25.6087 31.3809 24.6907 30.7614C23.7726 30.1418 22.9933 29.3384 22.402 28.402C22.137 28.266 22.001 28.137 21.735 28.266C19.864 28.803 18 29.198 16 29.069C7.197 29.069 0 22.668 0 14.668C0 6.66798 7.197 0.000976562 16 0.000976562C24.803 0.000976562 32 6.53198 32 14.668C32 18.001 30.667 21.068 28.531 23.599ZM16 18.667L20.265 21.599C20.3514 21.6506 20.4505 21.6768 20.5511 21.6745C20.6517 21.6722 20.7496 21.6415 20.8335 21.586C20.9174 21.5305 20.984 21.4525 21.0254 21.3608C21.0669 21.2692 21.0817 21.1677 21.068 21.068L19.469 16L23.598 12.803C23.6434 12.7352 23.6727 12.658 23.6837 12.5772C23.6947 12.4964 23.6872 12.4142 23.6616 12.3367C23.6361 12.2593 23.5932 12.1887 23.5363 12.1304C23.4793 12.072 23.4098 12.0274 23.333 12H18.136L16.401 6.93198C16.3504 6.87567 16.2884 6.83065 16.2193 6.79983C16.1501 6.76901 16.0752 6.75308 15.9995 6.75308C15.9238 6.75308 15.8489 6.76901 15.7797 6.79983C15.7106 6.83065 15.6486 6.87567 15.598 6.93198L13.863 12H8.53C8.43902 12.033 8.35877 12.0902 8.2979 12.1655C8.23704 12.2408 8.19786 12.3312 8.18459 12.4271C8.17132 12.523 8.18446 12.6207 8.22259 12.7096C8.26073 12.7986 8.32241 12.8755 8.401 12.932L12.401 16.136L11.068 21.068C11.0659 21.1506 11.0829 21.2326 11.1178 21.3075C11.1527 21.3824 11.2046 21.4482 11.2692 21.4996C11.3339 21.5511 11.4096 21.5869 11.4904 21.6041C11.5712 21.6213 11.655 21.6196 11.735 21.599L16 18.667Z" fill="white"/>
</g>
<defs>
<clipPath id="clip0_2375_319">
<rect width="32" height="32" fill="white"/>
</clipPath>
</defs>
</svg>
