<svg width="45" height="45" viewBox="0 0 45 45" fill="none" xmlns="http://www.w3.org/2000/svg">
<g clip-path="url(#clip0_2362_281)">
<path d="M45 22.4775C45 10.0687 34.92 0 22.5 0C10.08 0 0 10.0687 0 22.4775C0 29.3119 3.105 35.4712 7.965 39.6056C8.01 39.6506 8.055 39.6506 8.055 39.6956C8.46 40.0106 8.865 40.3256 9.315 40.6406C9.54 40.7756 9.72 40.9528 9.945 41.1328C13.6633 43.6538 18.0526 45.001 22.545 45C27.0374 45.001 31.4267 43.6538 35.145 41.1328C35.37 40.9978 35.55 40.8206 35.775 40.6828C36.18 40.3706 36.63 40.0556 37.035 39.7406C37.08 39.6956 37.125 39.6956 37.125 39.6506C41.895 35.4684 45 29.3119 45 22.4775ZM22.5 42.1678C18.27 42.1678 14.4 40.8178 11.205 38.5706C11.25 38.2106 11.34 37.8534 11.43 37.4934C11.6981 36.5178 12.0914 35.581 12.6 34.7062C13.095 33.8512 13.68 33.0863 14.4 32.4113C15.075 31.7362 15.885 31.1091 16.695 30.6141C17.55 30.1191 18.45 29.7591 19.44 29.4891C20.4377 29.2201 21.4667 29.0849 22.5 29.0869C25.5675 29.0652 28.5222 30.2418 30.735 32.3663C31.77 33.4013 32.58 34.6163 33.165 36.0084C33.48 36.8184 33.705 37.6734 33.84 38.5706C30.5189 40.9054 26.5597 42.1614 22.5 42.1678ZM15.615 21.3553C15.2185 20.4475 15.0191 19.4659 15.03 18.4753C15.03 17.4881 15.21 16.4981 15.615 15.5981C16.02 14.6981 16.56 13.8909 17.235 13.2159C17.91 12.5409 18.72 12.0037 19.62 11.5988C20.52 11.1938 21.51 11.0138 22.5 11.0138C23.535 11.0138 24.48 11.1938 25.38 11.5988C26.28 12.0037 27.09 12.5437 27.765 13.2159C28.44 13.8909 28.98 14.7009 29.385 15.5981C29.79 16.4981 29.97 17.4881 29.97 18.4753C29.97 19.5103 29.79 20.4553 29.385 21.3525C28.9941 22.2392 28.4452 23.0473 27.765 23.7375C27.0746 24.4167 26.2665 24.9647 25.38 25.3547C23.5205 26.1189 21.4345 26.1189 19.575 25.3547C18.6885 24.9647 17.8804 24.4167 17.19 23.7375C16.5089 23.0574 15.973 22.2488 15.615 21.3553ZM36.495 36.2784C36.495 36.1884 36.45 36.1434 36.45 36.0534C36.0074 34.6455 35.3551 33.3124 34.515 32.0991C33.6741 30.8767 32.6407 29.7987 31.455 28.9069C30.5494 28.2256 29.5679 27.6518 28.53 27.1969C29.0022 26.8854 29.4397 26.5243 29.835 26.1197C30.5059 25.4574 31.0951 24.7171 31.59 23.9147C32.5866 22.2773 33.1013 20.392 33.075 18.4753C33.0889 17.0564 32.8133 15.6497 32.265 14.3409C31.7237 13.0799 30.9445 11.935 29.97 10.9688C28.997 10.0126 27.8518 9.24916 26.595 8.71875C25.2841 8.17142 23.8755 7.89678 22.455 7.91156C21.0343 7.89767 19.6257 8.17327 18.315 8.72156C17.0473 9.25084 15.8994 10.0305 14.94 11.0138C13.9839 11.9857 13.2204 13.1299 12.69 14.3859C12.1417 15.6947 11.8661 17.1014 11.88 18.5203C11.88 19.5103 12.015 20.4553 12.285 21.3525C12.555 22.2975 12.915 23.1525 13.41 23.9597C13.86 24.7697 14.49 25.4897 15.165 26.1647C15.57 26.5697 16.02 26.9269 16.515 27.2419C15.4739 27.7089 14.492 28.2981 13.59 28.9969C12.42 29.8969 11.385 30.9741 10.53 32.1441C9.68135 33.3524 9.02835 34.6869 8.595 36.0984C8.55 36.1884 8.55 36.2784 8.55 36.3234C4.995 32.7262 2.79 27.8719 2.79 22.4775C2.79 11.6438 11.655 2.78719 22.5 2.78719C33.345 2.78719 42.21 11.6438 42.21 22.4775C42.2041 27.6524 40.1493 32.6144 36.495 36.2784Z" fill="white"/>
</g>
<defs>
<clipPath id="clip0_2362_281">
<rect width="45" height="45" fill="white"/>
</clipPath>
</defs>
</svg>
