<svg width="49" height="51" viewBox="0 0 49 51" fill="none" xmlns="http://www.w3.org/2000/svg">
<path d="M38.2812 24.0078C37.3675 24.0078 36.4912 23.6448 35.845 22.9987C35.1989 22.3526 34.8359 21.4763 34.8359 20.5625C34.8359 19.6487 35.1989 18.7724 35.845 18.1263C36.4912 17.4802 37.3675 17.1172 38.2812 17.1172C39.195 17.1172 40.0713 17.4802 40.7175 18.1263C41.3636 18.7724 41.7266 19.6487 41.7266 20.5625C41.7266 21.4763 41.3636 22.3526 40.7175 22.9987C40.0713 23.6448 39.195 24.0078 38.2812 24.0078ZM24.5 24.0078C23.5862 24.0078 22.7099 23.6448 22.0638 22.9987C21.4177 22.3526 21.0547 21.4763 21.0547 20.5625C21.0547 19.6487 21.4177 18.7724 22.0638 18.1263C22.7099 17.4802 23.5862 17.1172 24.5 17.1172C25.4138 17.1172 26.2901 17.4802 26.9362 18.1263C27.5823 18.7724 27.9453 19.6487 27.9453 20.5625C27.9453 21.4763 27.5823 22.3526 26.9362 22.9987C26.2901 23.6448 25.4138 24.0078 24.5 24.0078ZM10.7188 24.0078C9.805 24.0078 8.92867 23.6448 8.28255 22.9987C7.63643 22.3526 7.27344 21.4763 7.27344 20.5625C7.27344 19.6487 7.63643 18.7724 8.28255 18.1263C8.92867 17.4802 9.805 17.1172 10.7188 17.1172C11.6325 17.1172 12.5088 17.4802 13.155 18.1263C13.8011 18.7724 14.1641 19.6487 14.1641 20.5625C14.1641 21.4763 13.8011 22.3526 13.155 22.9987C12.5088 23.6448 11.6325 24.0078 10.7188 24.0078ZM0.875 0.875V40.25H12.6875V50.0938L26.4688 40.25H48.125V0.875H0.875Z" fill="#EAB308"/>
</svg>
