<svg width="63" height="63" viewBox="0 0 63 63" fill="none" xmlns="http://www.w3.org/2000/svg">
<path d="M45.2812 31.0078C44.3675 31.0078 43.4912 30.6448 42.845 29.9987C42.1989 29.3526 41.8359 28.4763 41.8359 27.5625C41.8359 26.6487 42.1989 25.7724 42.845 25.1263C43.4912 24.4802 44.3675 24.1172 45.2812 24.1172C46.195 24.1172 47.0713 24.4802 47.7175 25.1263C48.3636 25.7724 48.7266 26.6487 48.7266 27.5625C48.7266 28.4763 48.3636 29.3526 47.7175 29.9987C47.0713 30.6448 46.195 31.0078 45.2812 31.0078ZM31.5 31.0078C30.5862 31.0078 29.7099 30.6448 29.0638 29.9987C28.4177 29.3526 28.0547 28.4763 28.0547 27.5625C28.0547 26.6487 28.4177 25.7724 29.0638 25.1263C29.7099 24.4802 30.5862 24.1172 31.5 24.1172C32.4138 24.1172 33.2901 24.4802 33.9362 25.1263C34.5823 25.7724 34.9453 26.6487 34.9453 27.5625C34.9453 28.4763 34.5823 29.3526 33.9362 29.9987C33.2901 30.6448 32.4138 31.0078 31.5 31.0078ZM17.7188 31.0078C16.805 31.0078 15.9287 30.6448 15.2825 29.9987C14.6364 29.3526 14.2734 28.4763 14.2734 27.5625C14.2734 26.6487 14.6364 25.7724 15.2825 25.1263C15.9287 24.4802 16.805 24.1172 17.7188 24.1172C18.6325 24.1172 19.5088 24.4802 20.155 25.1263C20.8011 25.7724 21.1641 26.6487 21.1641 27.5625C21.1641 28.4763 20.8011 29.3526 20.155 29.9987C19.5088 30.6448 18.6325 31.0078 17.7188 31.0078ZM7.875 7.875V47.25H19.6875V57.0938L33.4688 47.25H55.125V7.875H7.875Z" fill="#EAB308"/>
<ellipse cx="53" cy="15" rx="10" ry="11" fill="#E44D26"/>
<path d="M52.1932 20.1591C51.3902 20.1591 50.6742 20.0114 50.0455 19.7159C49.4205 19.4205 48.9242 19.0133 48.5568 18.4943C48.1894 17.9754 47.9981 17.3807 47.983 16.7102H50.3693C50.3958 17.161 50.5852 17.5265 50.9375 17.8068C51.2898 18.0871 51.7083 18.2273 52.1932 18.2273C52.5795 18.2273 52.9205 18.142 53.2159 17.9716C53.5152 17.7973 53.7481 17.5568 53.9148 17.25C54.0852 16.9394 54.1705 16.5833 54.1705 16.1818C54.1705 15.7727 54.0833 15.4129 53.9091 15.1023C53.7386 14.7917 53.5019 14.5492 53.1989 14.375C52.8958 14.2008 52.5492 14.1117 52.1591 14.108C51.8182 14.108 51.4867 14.178 51.1648 14.3182C50.8466 14.4583 50.5985 14.6496 50.4205 14.892L48.233 14.5L48.7841 8.36364H55.8977V10.375H50.8125L50.5114 13.2898H50.5795C50.7841 13.0019 51.0928 12.7633 51.5057 12.5739C51.9186 12.3845 52.3807 12.2898 52.892 12.2898C53.5928 12.2898 54.2178 12.4545 54.767 12.7841C55.3163 13.1136 55.75 13.5663 56.0682 14.142C56.3864 14.714 56.5436 15.3731 56.5398 16.1193C56.5436 16.9034 56.3617 17.6004 55.9943 18.2102C55.6307 18.8163 55.1212 19.2936 54.4659 19.642C53.8144 19.9867 53.0568 20.1591 52.1932 20.1591Z" fill="white"/>
</svg>
