<svg width="35" height="35" viewBox="0 0 35 35" fill="none" xmlns="http://www.w3.org/2000/svg">
<g clip-path="url(#clip0_2594_14)">
<path d="M21 21.875H14C13.0337 21.875 12.25 22.8546 12.25 24.0625V32.8125C12.25 34.0204 13.0337 35 14 35H21C21.9663 35 22.75 34.0204 22.75 32.8125V24.0625C22.75 22.8546 21.9663 21.875 21 21.875ZM10.5 2.1875C10.5 0.97959 9.71633 0 8.75 0H1.75C0.783672 0 0 0.97959 0 2.1875V10.9375C0 12.1454 0.783672 13.125 1.75 13.125H6.98469L10.9856 21.8777C11.5927 20.5748 12.7094 19.6875 14 19.6875H14.0153L10.5 11.9978V8.75H22.75V4.375H10.5V2.1875ZM33.25 0H26.25C25.2837 0 24.5 0.97959 24.5 2.1875V10.9375C24.5 12.1454 25.2837 13.125 26.25 13.125H33.25C34.2163 13.125 35 12.1454 35 10.9375V2.1875C35 0.97959 34.2163 0 33.25 0Z" fill="#EAB308"/>
</g>
<defs>
<clipPath id="clip0_2594_14">
<rect width="35" height="35" fill="white"/>
</clipPath>
</defs>
</svg>
