<svg width="35" height="35" viewBox="0 0 35 35" fill="none" xmlns="http://www.w3.org/2000/svg">
<path d="M28.4376 17.5003C28.4376 17.1649 28.423 16.8441 28.3939 16.5087L31.1064 14.4524C31.6897 14.0149 31.8501 13.1982 31.4855 12.5566L28.7585 7.84616C28.5836 7.53726 28.3008 7.30387 27.9643 7.19081C27.6278 7.07776 27.2614 7.09302 26.9355 7.23366L23.8001 8.56074C23.2605 8.18158 22.6918 7.84616 22.0939 7.56908L21.671 4.20033C21.5835 3.47116 20.9564 2.91699 20.2272 2.91699H14.7876C14.0439 2.91699 13.4168 3.47116 13.3293 4.20033L12.9064 7.56908C12.3085 7.84616 11.7397 8.18158 11.2001 8.56074L8.06471 7.23366C7.39387 6.94199 6.60637 7.20449 6.24179 7.84616L3.51471 12.5712C3.15012 13.2128 3.31054 14.0149 3.89387 14.467L6.60637 16.5232C6.54592 17.1781 6.54592 17.8371 6.60637 18.492L3.89387 20.5482C3.31054 20.9857 3.15012 21.8024 3.51471 22.4441L6.24179 27.1545C6.60637 27.7962 7.39387 28.0587 8.06471 27.767L11.2001 26.4399C11.7397 26.8191 12.3085 27.1545 12.9064 27.4316L13.3293 30.8003C13.4168 31.5295 14.0439 32.0837 14.773 32.0837H20.2126C20.9418 32.0837 21.5689 31.5295 21.6564 30.8003L22.0793 27.4316C22.6772 27.1545 23.246 26.8191 23.7855 26.4399L26.921 27.767C27.5918 28.0587 28.3793 27.7962 28.7439 27.1545L31.471 22.4441C31.8355 21.8024 31.6751 21.0003 31.0918 20.5482L28.3793 18.492C28.423 18.1566 28.4376 17.8357 28.4376 17.5003ZM17.5585 22.6045C14.7439 22.6045 12.4543 20.3149 12.4543 17.5003C12.4543 14.6857 14.7439 12.3962 17.5585 12.3962C20.373 12.3962 22.6626 14.6857 22.6626 17.5003C22.6626 20.3149 20.373 22.6045 17.5585 22.6045Z" fill="#FFFEFE"/>
</svg>
