<svg width="35" height="35" viewBox="0 0 35 35" fill="none" xmlns="http://www.w3.org/2000/svg">
<path d="M30.0836 23.3317C29.9701 23.195 29.8587 23.0583 29.7493 22.9264C28.2454 21.1073 27.3356 20.0095 27.3356 14.86C27.3356 12.1939 26.6978 10.0064 25.4406 8.36582C24.5137 7.15381 23.2607 6.23438 21.6091 5.55488C21.5878 5.54306 21.5689 5.52755 21.553 5.50908C20.959 3.51982 19.3334 2.1875 17.5 2.1875C15.6666 2.1875 14.0417 3.51982 13.4477 5.50703C13.4318 5.52482 13.4131 5.53984 13.3923 5.55146C9.53819 7.13809 7.66515 10.1821 7.66515 14.8579C7.66515 20.0095 6.75665 21.1073 5.25138 22.9243C5.142 23.0563 5.03058 23.1902 4.9171 23.3297C4.62398 23.6832 4.43826 24.1133 4.38192 24.569C4.32559 25.0248 4.401 25.4871 4.59923 25.9014C5.02101 26.79 5.91993 27.3417 6.94601 27.3417H28.0615C29.0828 27.3417 29.9756 26.7907 30.3987 25.9062C30.5978 25.4918 30.6739 25.0291 30.6181 24.5728C30.5622 24.1165 30.3767 23.6858 30.0836 23.3317ZM17.5 32.8125C18.4878 32.8117 19.457 32.5436 20.3048 32.0365C21.1525 31.5295 21.8472 30.8024 22.3152 29.9325C22.3373 29.8908 22.3482 29.8441 22.3469 29.797C22.3455 29.7499 22.332 29.7039 22.3077 29.6635C22.2833 29.6231 22.2489 29.5897 22.2079 29.5665C22.1668 29.5434 22.1204 29.5312 22.0733 29.5312H12.9281C12.8809 29.5311 12.8345 29.5431 12.7933 29.5663C12.7521 29.5894 12.7176 29.6228 12.6932 29.6632C12.6688 29.7036 12.6552 29.7496 12.6539 29.7968C12.6525 29.844 12.6634 29.8908 12.6855 29.9325C13.1534 30.8023 13.848 31.5293 14.6956 32.0363C15.5433 32.5434 16.5123 32.8116 17.5 32.8125Z" fill="white"/>
</svg>
