<svg width="58" height="50" viewBox="0 0 58 50" fill="none" xmlns="http://www.w3.org/2000/svg">
<path d="M47.9163 20.8333C47.9163 19.7282 47.4774 18.6684 46.6959 17.887C45.9145 17.1056 44.8547 16.6666 43.7497 16.6666H30.583L32.583 7.14575C32.6247 6.93742 32.6455 6.70825 32.6455 6.47909C32.6455 5.62492 32.2913 4.83325 31.7288 4.27075L29.5205 2.08325L15.8122 15.7916C15.0413 16.5624 14.583 17.6041 14.583 18.7499V39.5833C14.583 40.6883 15.022 41.7481 15.8034 42.5295C16.5848 43.3109 17.6446 43.7499 18.7497 43.7499H37.4997C39.2288 43.7499 40.708 42.7083 41.333 41.2083L47.6247 26.5208C47.8122 26.0416 47.9163 25.5416 47.9163 24.9999V20.8333ZM2.08301 43.7499H10.4163V18.7499H2.08301V43.7499Z" fill="#2965F1"/>
<ellipse cx="48" cy="19" rx="10" ry="11" fill="#173459"/>
<path d="M40.5753 21.4659V20.0128L44.2188 14.2727H45.4716V16.2841H44.7301L42.4332 19.919V19.9872H47.6108V21.4659H40.5753ZM44.7642 23V21.0227L44.7983 20.3793V14.2727H46.5284V23H44.7642ZM52.2621 23.1918C51.5291 23.1889 50.8984 23.0085 50.37 22.6506C49.8445 22.2926 49.4396 21.7741 49.1555 21.0952C48.8743 20.4162 48.7351 19.5994 48.7379 18.6449C48.7379 17.6932 48.8786 16.8821 49.1598 16.2116C49.4439 15.5412 49.8487 15.0312 50.3743 14.6818C50.9027 14.3295 51.532 14.1534 52.2621 14.1534C52.9922 14.1534 53.62 14.3295 54.1456 14.6818C54.674 15.0341 55.0803 15.5455 55.3643 16.2159C55.6484 16.8835 55.7891 17.6932 55.7862 18.6449C55.7862 19.6023 55.6442 20.4205 55.3601 21.0994C55.0788 21.7784 54.6754 22.2969 54.1499 22.6548C53.6243 23.0128 52.995 23.1918 52.2621 23.1918ZM52.2621 21.6619C52.7621 21.6619 53.1612 21.4105 53.4595 20.9077C53.7578 20.4048 53.9055 19.6506 53.9027 18.6449C53.9027 17.983 53.8345 17.4318 53.6982 16.9915C53.5646 16.5511 53.3743 16.2202 53.1271 15.9986C52.8828 15.777 52.5945 15.6662 52.2621 15.6662C51.7649 15.6662 51.3672 15.9148 51.0689 16.4119C50.7706 16.9091 50.62 17.6534 50.6172 18.6449C50.6172 19.3153 50.6839 19.875 50.8175 20.3239C50.9538 20.7699 51.1456 21.1051 51.3928 21.3295C51.6399 21.5511 51.9297 21.6619 52.2621 21.6619Z" fill="white"/>
</svg>
