<svg width="50" height="50" viewBox="0 0 50 50" fill="none" xmlns="http://www.w3.org/2000/svg">
<path d="M47.9163 20.8333C47.9163 19.7282 47.4774 18.6684 46.6959 17.887C45.9145 17.1056 44.8547 16.6666 43.7497 16.6666H30.583L32.583 7.14575C32.6247 6.93742 32.6455 6.70825 32.6455 6.47909C32.6455 5.62492 32.2913 4.83325 31.7288 4.27075L29.5205 2.08325L15.8122 15.7916C15.0413 16.5624 14.583 17.6041 14.583 18.7499V39.5833C14.583 40.6883 15.022 41.7481 15.8034 42.5295C16.5848 43.3109 17.6446 43.7499 18.7497 43.7499H37.4997C39.2288 43.7499 40.708 42.7083 41.333 41.2083L47.6247 26.5208C47.8122 26.0416 47.9163 25.5416 47.9163 24.9999V20.8333ZM2.08301 43.7499H10.4163V18.7499H2.08301V43.7499Z" fill="#2965F1"/>
</svg>
