<svg width="30" height="30" viewBox="0 0 30 30" fill="none" xmlns="http://www.w3.org/2000/svg">
<g clip-path="url(#clip0_2528_9)">
<path d="M27.1875 0.703233H2.8125C2.25945 0.697605 1.72675 0.911603 1.33129 1.29827C0.935838 1.68494 0.709925 2.21269 0.703125 2.76573V27.2392C0.711154 27.7914 0.937608 28.3179 1.33293 28.7036C1.72825 29.0893 2.26025 29.3026 2.8125 29.297H27.1875C27.7406 29.3014 28.2729 29.0866 28.6682 28.6997C29.0634 28.3128 29.2895 27.7852 29.2969 27.2321V2.7587C29.287 2.20728 29.0599 1.68205 28.6649 1.29715C28.2699 0.91226 27.739 0.698822 27.1875 0.703233Z" fill="#0076B2"/>
<path d="M4.93613 11.4209H9.18066V25.0779H4.93613V11.4209ZM7.05957 4.62402C7.5464 4.62402 8.02229 4.76841 8.42704 5.03893C8.83179 5.30944 9.14721 5.69393 9.3334 6.14374C9.5196 6.59356 9.5682 7.08849 9.47305 7.56593C9.3779 8.04337 9.14329 8.48186 8.79889 8.82594C8.45448 9.17001 8.01577 9.40421 7.53824 9.4989C7.06071 9.59359 6.56582 9.54452 6.11619 9.3579C5.66655 9.17128 5.28237 8.85549 5.01224 8.45048C4.74211 8.04547 4.59817 7.56944 4.59863 7.08262C4.59926 6.43034 4.85881 5.80499 5.32025 5.34399C5.7817 4.88298 6.4073 4.62402 7.05957 4.62402ZM11.8432 11.4209H15.9119V13.2959H15.9682C16.5354 12.2225 17.9182 11.0904 19.983 11.0904C24.2814 11.0811 25.0783 13.91 25.0783 17.5779V25.0779H20.8338V18.4334C20.8338 16.8514 20.8057 14.8146 18.6283 14.8146C16.451 14.8146 16.0807 16.5396 16.0807 18.3303V25.0779H11.8432V11.4209Z" fill="white"/>
</g>
<defs>
<clipPath id="clip0_2528_9">
<rect width="30" height="30" fill="white"/>
</clipPath>
</defs>
</svg>
