<svg width="158" height="43" viewBox="0 0 158 43" fill="none" xmlns="http://www.w3.org/2000/svg">
<circle cx="21.5" cy="21.5" r="19.5" stroke="url(#paint0_linear_2346_71)" stroke-width="4"/>
<path d="M73.5682 13.5455H75.6818V25.1023C75.6818 26.2955 75.4006 27.3608 74.8381 28.2983C74.2813 29.2301 73.4943 29.9659 72.4773 30.5057C71.4602 31.0398 70.267 31.3068 68.8977 31.3068C67.5284 31.3068 66.3352 31.0398 65.3182 30.5057C64.3011 29.9659 63.5114 29.2301 62.9489 28.2983C62.392 27.3608 62.1136 26.2955 62.1136 25.1023V13.5455H64.2273V24.9318C64.2273 25.7841 64.4148 26.5426 64.7898 27.2074C65.1648 27.8665 65.6989 28.3864 66.392 28.767C67.0909 29.142 67.9261 29.3295 68.8977 29.3295C69.8693 29.3295 70.7045 29.142 71.4034 28.767C72.1023 28.3864 72.6364 27.8665 73.0057 27.2074C73.3807 26.5426 73.5682 25.7841 73.5682 24.9318V13.5455ZM82.5959 31L78.6072 17.9091H80.7209L83.5504 27.9318H83.6868L86.4822 17.9091H88.63L91.3913 27.8977H91.5277L94.3572 17.9091H96.4709L92.4822 31H90.505L87.6413 20.9432H87.4368L84.5732 31H82.5959ZM99.13 31V17.9091H101.141V31H99.13ZM100.153 15.7273C99.7607 15.7273 99.4226 15.5938 99.1385 15.3267C98.8601 15.0597 98.7209 14.7386 98.7209 14.3636C98.7209 13.9886 98.8601 13.6676 99.1385 13.4006C99.4226 13.1335 99.7607 13 100.153 13C100.545 13 100.88 13.1335 101.158 13.4006C101.442 13.6676 101.585 13.9886 101.585 14.3636C101.585 14.7386 101.442 15.0597 101.158 15.3267C100.88 15.5938 100.545 15.7273 100.153 15.7273ZM106.837 23.125V31H104.825V17.9091H106.768V19.9545H106.939C107.246 19.2898 107.712 18.7557 108.337 18.3523C108.962 17.9432 109.768 17.7386 110.757 17.7386C111.643 17.7386 112.419 17.9205 113.084 18.2841C113.749 18.642 114.266 19.1875 114.635 19.9205C115.004 20.6477 115.189 21.5682 115.189 22.6818V31H113.178V22.8182C113.178 21.7898 112.911 20.9886 112.376 20.4148C111.842 19.8352 111.109 19.5455 110.178 19.5455C109.536 19.5455 108.962 19.6847 108.456 19.9631C107.956 20.2415 107.561 20.6477 107.271 21.1818C106.982 21.7159 106.837 22.3636 106.837 23.125ZM124.353 31.2727C123.092 31.2727 122.004 30.9943 121.089 30.4375C120.18 29.875 119.478 29.0909 118.984 28.0852C118.495 27.0739 118.251 25.8977 118.251 24.5568C118.251 23.2159 118.495 22.0341 118.984 21.0114C119.478 19.983 120.165 19.1818 121.046 18.608C121.933 18.0284 122.967 17.7386 124.148 17.7386C124.83 17.7386 125.504 17.8523 126.168 18.0795C126.833 18.3068 127.438 18.6761 127.984 19.1875C128.529 19.6932 128.964 20.3636 129.288 21.1989C129.612 22.0341 129.773 23.0625 129.773 24.2841V25.1364H119.683V23.3977H127.728C127.728 22.6591 127.58 22 127.285 21.4205C126.995 20.8409 126.58 20.3835 126.04 20.0483C125.506 19.7131 124.876 19.5455 124.148 19.5455C123.347 19.5455 122.654 19.7443 122.069 20.142C121.489 20.5341 121.043 21.0455 120.731 21.6761C120.418 22.3068 120.262 22.983 120.262 23.7045V24.8636C120.262 25.8523 120.433 26.6903 120.773 27.3778C121.12 28.0597 121.6 28.5795 122.214 28.9375C122.827 29.2898 123.54 29.4659 124.353 29.4659C124.881 29.4659 125.359 29.392 125.785 29.2443C126.217 29.0909 126.589 28.8636 126.901 28.5625C127.214 28.2557 127.455 27.875 127.626 27.4205L129.569 27.9659C129.364 28.625 129.021 29.2045 128.538 29.7045C128.055 30.1989 127.458 30.5852 126.748 30.8636C126.038 31.1364 125.239 31.2727 124.353 31.2727ZM132.458 31V29.4659L139.89 19.9205V19.7841H132.697V17.9091H142.481V19.5114L135.254 28.9886V29.125H142.719V31H132.458ZM149.67 31.3068C148.84 31.3068 148.087 31.1506 147.411 30.8381C146.735 30.5199 146.198 30.0625 145.8 29.4659C145.403 28.8636 145.204 28.1364 145.204 27.2841C145.204 26.5341 145.352 25.9261 145.647 25.4602C145.942 24.9886 146.337 24.6193 146.832 24.3523C147.326 24.0852 147.871 23.8864 148.468 23.7557C149.07 23.6193 149.675 23.5114 150.283 23.4318C151.079 23.3295 151.724 23.2528 152.218 23.2017C152.718 23.1449 153.082 23.0511 153.309 22.9205C153.542 22.7898 153.658 22.5625 153.658 22.2386V22.1705C153.658 21.3295 153.428 20.6761 152.968 20.2102C152.513 19.7443 151.823 19.5114 150.897 19.5114C149.937 19.5114 149.184 19.7216 148.638 20.142C148.093 20.5625 147.71 21.0114 147.488 21.4886L145.579 20.8068C145.92 20.0114 146.374 19.392 146.942 18.9489C147.516 18.5 148.141 18.1875 148.817 18.0114C149.499 17.8295 150.17 17.7386 150.829 17.7386C151.249 17.7386 151.732 17.7898 152.278 17.892C152.829 17.9886 153.36 18.1903 153.871 18.4972C154.388 18.804 154.817 19.267 155.158 19.8864C155.499 20.5057 155.67 21.3352 155.67 22.375V31H153.658V29.2273H153.556C153.42 29.5114 153.192 29.8153 152.874 30.1392C152.556 30.4631 152.133 30.7386 151.604 30.9659C151.076 31.1932 150.431 31.3068 149.67 31.3068ZM149.977 29.5C150.772 29.5 151.442 29.3438 151.988 29.0312C152.539 28.7188 152.954 28.3153 153.232 27.821C153.516 27.3267 153.658 26.8068 153.658 26.2614V24.4205C153.573 24.5227 153.386 24.6165 153.096 24.7017C152.812 24.7812 152.482 24.8523 152.107 24.9148C151.738 24.9716 151.377 25.0227 151.025 25.0682C150.678 25.108 150.397 25.142 150.181 25.1705C149.658 25.2386 149.17 25.3494 148.715 25.5028C148.266 25.6506 147.903 25.875 147.624 26.1761C147.352 26.4716 147.215 26.875 147.215 27.3864C147.215 28.0852 147.474 28.6136 147.991 28.9716C148.513 29.3239 149.175 29.5 149.977 29.5Z" fill="white"/>
<path d="M30 30L21.5 9L13 30M27.1667 24.75H15.8333" stroke="white" stroke-width="4" stroke-linecap="round" stroke-linejoin="round"/>
<defs>
<linearGradient id="paint0_linear_2346_71" x1="21.5" y1="0" x2="21.5" y2="43" gradientUnits="userSpaceOnUse">
<stop stop-color="#EAB308"/>
<stop offset="1" stop-color="white"/>
</linearGradient>
</defs>
</svg>
