<svg width="35" height="35" viewBox="0 0 35 35" fill="none" xmlns="http://www.w3.org/2000/svg">
<path d="M23.3332 24.7919V27.7086H2.9165V24.7919C2.9165 24.7919 2.9165 18.9586 13.1248 18.9586C23.3332 18.9586 23.3332 24.7919 23.3332 24.7919ZM18.229 10.9377C18.229 9.92823 17.9296 8.94139 17.3688 8.10202C16.8079 7.26264 16.0108 6.60843 15.0781 6.2221C14.1455 5.83578 13.1192 5.7347 12.1291 5.93165C11.139 6.12859 10.2295 6.61472 9.51565 7.32855C8.80182 8.04238 8.31569 8.95185 8.11875 9.94197C7.9218 10.9321 8.02288 11.9584 8.4092 12.891C8.79552 13.8237 9.44974 14.6208 10.2891 15.1817C11.1285 15.7426 12.1153 16.0419 13.1248 16.0419C14.4785 16.0419 15.7768 15.5041 16.734 14.5469C17.6912 13.5897 18.229 12.2914 18.229 10.9377ZM23.2457 18.9586C24.1422 19.6524 24.8758 20.5342 25.3948 21.542C25.9138 22.5498 26.2057 23.6592 26.2498 24.7919V27.7086H32.0832V24.7919C32.0832 24.7919 32.0832 19.4982 23.2457 18.9586ZM21.8748 5.83357C20.871 5.82798 19.8893 6.12809 19.0603 6.69399C19.9461 7.93173 20.4224 9.41566 20.4224 10.9377C20.4224 12.4598 19.9461 13.9437 19.0603 15.1815C19.8893 15.7474 20.871 16.0475 21.8748 16.0419C23.2285 16.0419 24.5268 15.5041 25.484 14.5469C26.4412 13.5897 26.979 12.2914 26.979 10.9377C26.979 9.58403 26.4412 8.28577 25.484 7.32855C24.5268 6.37133 23.2285 5.83357 21.8748 5.83357Z" fill="white"/>
</svg>
