<svg width="916" height="532" viewBox="0 0 916 532" fill="none" xmlns="http://www.w3.org/2000/svg">
<rect width="916" height="532" fill="white"/>
<path d="M44.0028 454.332C42.5994 454.332 41.3949 453.977 40.3892 453.267C39.3892 452.551 38.6193 451.52 38.0795 450.173C37.5455 448.821 37.2784 447.193 37.2784 445.29C37.2841 443.386 37.554 441.767 38.0881 440.432C38.6278 439.091 39.3977 438.068 40.3977 437.364C41.4034 436.659 42.6051 436.307 44.0028 436.307C45.4006 436.307 46.6023 436.659 47.608 437.364C48.6136 438.068 49.3835 439.091 49.9176 440.432C50.4574 441.773 50.7273 443.392 50.7273 445.29C50.7273 447.199 50.4574 448.83 49.9176 450.182C49.3835 451.528 48.6136 452.557 47.608 453.267C46.608 453.977 45.4063 454.332 44.0028 454.332ZM44.0028 451.665C45.0938 451.665 45.9545 451.128 46.5852 450.054C47.2216 448.974 47.5398 447.386 47.5398 445.29C47.5398 443.903 47.3949 442.739 47.1051 441.795C46.8153 440.852 46.4063 440.142 45.8778 439.665C45.3494 439.182 44.7244 438.94 44.0028 438.94C42.9176 438.94 42.0597 439.48 41.429 440.56C40.7983 441.634 40.4801 443.21 40.4744 445.29C40.4688 446.682 40.608 447.852 40.892 448.801C41.1818 449.75 41.5909 450.466 42.1193 450.949C42.6477 451.426 43.2756 451.665 44.0028 451.665Z" fill="black"/>
<path d="M37.5511 383V380.716L43.6108 374.776C44.1903 374.19 44.6733 373.67 45.0597 373.216C45.446 372.761 45.7358 372.321 45.929 371.895C46.1222 371.469 46.2188 371.014 46.2188 370.531C46.2188 369.98 46.0938 369.509 45.8438 369.116C45.5938 368.719 45.25 368.412 44.8125 368.196C44.375 367.98 43.8778 367.872 43.321 367.872C42.7472 367.872 42.2443 367.991 41.8125 368.23C41.3807 368.463 41.0455 368.795 40.8068 369.227C40.5739 369.659 40.4574 370.173 40.4574 370.77H37.4489C37.4489 369.662 37.7017 368.699 38.2074 367.881C38.7131 367.062 39.4091 366.429 40.2955 365.98C41.1875 365.531 42.2102 365.307 43.3636 365.307C44.5341 365.307 45.5625 365.526 46.4489 365.963C47.3352 366.401 48.0227 367 48.5114 367.761C49.0057 368.523 49.2528 369.392 49.2528 370.369C49.2528 371.023 49.1278 371.665 48.8778 372.295C48.6278 372.926 48.1875 373.625 47.5568 374.392C46.9318 375.159 46.054 376.088 44.9233 377.179L41.9148 380.239V380.358H49.517V383H37.5511ZM58.9091 383.332C57.5057 383.332 56.3011 382.977 55.2955 382.267C54.2955 381.551 53.5256 380.52 52.9858 379.173C52.4517 377.821 52.1847 376.193 52.1847 374.29C52.1903 372.386 52.4602 370.767 52.9943 369.432C53.5341 368.091 54.304 367.068 55.304 366.364C56.3097 365.659 57.5114 365.307 58.9091 365.307C60.3068 365.307 61.5085 365.659 62.5142 366.364C63.5199 367.068 64.2898 368.091 64.8239 369.432C65.3636 370.773 65.6335 372.392 65.6335 374.29C65.6335 376.199 65.3636 377.83 64.8239 379.182C64.2898 380.528 63.5199 381.557 62.5142 382.267C61.5142 382.977 60.3125 383.332 58.9091 383.332ZM58.9091 380.665C60 380.665 60.8608 380.128 61.4915 379.054C62.1278 377.974 62.446 376.386 62.446 374.29C62.446 372.903 62.3011 371.739 62.0114 370.795C61.7216 369.852 61.3125 369.142 60.7841 368.665C60.2557 368.182 59.6307 367.94 58.9091 367.94C57.8239 367.94 56.9659 368.48 56.3352 369.56C55.7045 370.634 55.3864 372.21 55.3807 374.29C55.375 375.682 55.5142 376.852 55.7983 377.801C56.0881 378.75 56.4972 379.466 57.0256 379.949C57.554 380.426 58.1818 380.665 58.9091 380.665Z" fill="black"/>
<path d="M43.8153 316.239C42.5881 316.239 41.4972 316.028 40.5426 315.608C39.5938 315.187 38.8438 314.602 38.2926 313.852C37.7415 313.102 37.4489 312.236 37.4148 311.253H40.6193C40.6477 311.724 40.804 312.136 41.0881 312.489C41.3722 312.835 41.75 313.105 42.2216 313.298C42.6932 313.491 43.2216 313.588 43.8068 313.588C44.4318 313.588 44.9858 313.48 45.4688 313.264C45.9517 313.043 46.3295 312.736 46.6023 312.344C46.875 311.952 47.0085 311.5 47.0028 310.989C47.0085 310.46 46.8722 309.994 46.5938 309.591C46.3153 309.187 45.9119 308.872 45.3835 308.645C44.8608 308.418 44.2301 308.304 43.4915 308.304H41.9489V305.866H43.4915C44.0994 305.866 44.6307 305.761 45.0852 305.551C45.5455 305.341 45.9063 305.045 46.1676 304.665C46.429 304.278 46.5568 303.832 46.5511 303.327C46.5568 302.832 46.446 302.403 46.2188 302.04C45.9972 301.67 45.6818 301.384 45.2727 301.179C44.8693 300.974 44.3949 300.872 43.8494 300.872C43.3153 300.872 42.821 300.969 42.3665 301.162C41.9119 301.355 41.5455 301.631 41.267 301.989C40.9886 302.341 40.8409 302.761 40.8239 303.25H37.7812C37.804 302.273 38.0852 301.415 38.625 300.676C39.1705 299.932 39.8977 299.352 40.8068 298.938C41.7159 298.517 42.7358 298.307 43.8665 298.307C45.0313 298.307 46.0426 298.526 46.9006 298.963C47.7642 299.395 48.4318 299.977 48.9034 300.71C49.375 301.443 49.6108 302.253 49.6108 303.139C49.6165 304.122 49.3267 304.946 48.7415 305.611C48.1619 306.276 47.4006 306.71 46.4574 306.915V307.051C47.6847 307.222 48.625 307.676 49.2784 308.415C49.9375 309.148 50.2642 310.06 50.2585 311.151C50.2585 312.128 49.9801 313.003 49.4233 313.776C48.8722 314.543 48.1108 315.145 47.1392 315.582C46.1733 316.02 45.0653 316.239 43.8153 316.239ZM59.6357 316.332C58.2322 316.332 57.0277 315.977 56.022 315.267C55.022 314.551 54.2521 313.52 53.7124 312.173C53.1783 310.821 52.9112 309.193 52.9112 307.29C52.9169 305.386 53.1868 303.767 53.7209 302.432C54.2607 301.091 55.0305 300.068 56.0305 299.364C57.0362 298.659 58.2379 298.307 59.6357 298.307C61.0334 298.307 62.2351 298.659 63.2408 299.364C64.2464 300.068 65.0163 301.091 65.5504 302.432C66.0902 303.773 66.3601 305.392 66.3601 307.29C66.3601 309.199 66.0902 310.83 65.5504 312.182C65.0163 313.528 64.2464 314.557 63.2408 315.267C62.2408 315.977 61.0391 316.332 59.6357 316.332ZM59.6357 313.665C60.7266 313.665 61.5874 313.128 62.218 312.054C62.8544 310.974 63.1726 309.386 63.1726 307.29C63.1726 305.903 63.0277 304.739 62.7379 303.795C62.4482 302.852 62.0391 302.142 61.5107 301.665C60.9822 301.182 60.3572 300.94 59.6357 300.94C58.5504 300.94 57.6925 301.48 57.0618 302.56C56.4311 303.634 56.1129 305.21 56.1072 307.29C56.1016 308.682 56.2408 309.852 56.5249 310.801C56.8146 311.75 57.2237 312.466 57.7521 312.949C58.2805 313.426 58.9084 313.665 59.6357 313.665Z" fill="black"/>
<path d="M37.2358 253.761V251.247L44.642 239.545H46.7386V243.125H45.4602L40.4744 251.026V251.162H50.8125V253.761H37.2358ZM45.5625 257V252.994L45.5966 251.869V239.545H48.5795V257H45.5625ZM59.9872 257.332C58.5838 257.332 57.3793 256.977 56.3736 256.267C55.3736 255.551 54.6037 254.52 54.0639 253.173C53.5298 251.821 53.2628 250.193 53.2628 248.29C53.2685 246.386 53.5384 244.767 54.0724 243.432C54.6122 242.091 55.3821 241.068 56.3821 240.364C57.3878 239.659 58.5895 239.307 59.9872 239.307C61.3849 239.307 62.5866 239.659 63.5923 240.364C64.598 241.068 65.3679 242.091 65.902 243.432C66.4418 244.773 66.7116 246.392 66.7116 248.29C66.7116 250.199 66.4418 251.83 65.902 253.182C65.3679 254.528 64.598 255.557 63.5923 256.267C62.5923 256.977 61.3906 257.332 59.9872 257.332ZM59.9872 254.665C61.0781 254.665 61.9389 254.128 62.5696 253.054C63.206 251.974 63.5241 250.386 63.5241 248.29C63.5241 246.903 63.3793 245.739 63.0895 244.795C62.7997 243.852 62.3906 243.142 61.8622 242.665C61.3338 242.182 60.7088 241.94 59.9872 241.94C58.902 241.94 58.044 242.48 57.4134 243.56C56.7827 244.634 56.4645 246.21 56.4588 248.29C56.4531 249.682 56.5923 250.852 56.8764 251.801C57.1662 252.75 57.5753 253.466 58.1037 253.949C58.6321 254.426 59.2599 254.665 59.9872 254.665Z" fill="black"/>
<path d="M43.6193 204.239C42.483 204.239 41.4659 204.026 40.5682 203.599C39.6705 203.168 38.9574 202.577 38.429 201.827C37.9063 201.077 37.6278 200.219 37.5938 199.253H40.6619C40.7188 199.969 41.0284 200.554 41.5909 201.009C42.1534 201.457 42.8295 201.682 43.6193 201.682C44.2386 201.682 44.7898 201.54 45.2727 201.256C45.7557 200.972 46.1364 200.577 46.4148 200.071C46.6932 199.565 46.8295 198.989 46.8239 198.341C46.8295 197.682 46.6903 197.097 46.4062 196.585C46.1222 196.074 45.733 195.673 45.2386 195.384C44.7443 195.088 44.1761 194.94 43.5341 194.94C43.0114 194.935 42.4972 195.031 41.9915 195.23C41.4858 195.429 41.0852 195.69 40.7898 196.014L37.9347 195.545L38.8466 186.545H48.9716V189.188H41.4631L40.9602 193.815H41.0625C41.3864 193.435 41.8438 193.119 42.4347 192.869C43.0256 192.614 43.6733 192.486 44.3778 192.486C45.4347 192.486 46.3778 192.736 47.2074 193.236C48.0369 193.73 48.6903 194.412 49.1676 195.281C49.6449 196.151 49.8835 197.145 49.8835 198.264C49.8835 199.418 49.6165 200.446 49.0824 201.349C48.554 202.247 47.8182 202.955 46.875 203.472C45.9375 203.983 44.8523 204.239 43.6193 204.239ZM59.1903 204.332C57.7869 204.332 56.5824 203.977 55.5767 203.267C54.5767 202.551 53.8068 201.52 53.267 200.173C52.733 198.821 52.4659 197.193 52.4659 195.29C52.4716 193.386 52.7415 191.767 53.2756 190.432C53.8153 189.091 54.5852 188.068 55.5852 187.364C56.5909 186.659 57.7926 186.307 59.1903 186.307C60.5881 186.307 61.7898 186.659 62.7955 187.364C63.8011 188.068 64.571 189.091 65.1051 190.432C65.6449 191.773 65.9148 193.392 65.9148 195.29C65.9148 197.199 65.6449 198.83 65.1051 200.182C64.571 201.528 63.8011 202.557 62.7955 203.267C61.7955 203.977 60.5938 204.332 59.1903 204.332ZM59.1903 201.665C60.2813 201.665 61.142 201.128 61.7727 200.054C62.4091 198.974 62.7273 197.386 62.7273 195.29C62.7273 193.903 62.5824 192.739 62.2926 191.795C62.0028 190.852 61.5938 190.142 61.0653 189.665C60.5369 189.182 59.9119 188.94 59.1903 188.94C58.1051 188.94 57.2472 189.48 56.6165 190.56C55.9858 191.634 55.6676 193.21 55.6619 195.29C55.6563 196.682 55.7955 197.852 56.0795 198.801C56.3693 199.75 56.7784 200.466 57.3068 200.949C57.8352 201.426 58.4631 201.665 59.1903 201.665Z" fill="black"/>
<path d="M43.9432 155.239C43.108 155.233 42.2926 155.088 41.4972 154.804C40.7017 154.514 39.9858 154.045 39.3494 153.398C38.7131 152.744 38.2074 151.878 37.8324 150.798C37.4574 149.713 37.2727 148.369 37.2784 146.767C37.2784 145.273 37.4375 143.94 37.7557 142.77C38.0739 141.599 38.5312 140.611 39.1278 139.804C39.7244 138.991 40.4432 138.372 41.2841 137.946C42.1307 137.52 43.0767 137.307 44.1222 137.307C45.2188 137.307 46.1903 137.523 47.0369 137.955C47.8892 138.386 48.5767 138.977 49.0994 139.727C49.6222 140.472 49.946 141.312 50.071 142.25H46.9602C46.8011 141.58 46.4744 141.045 45.9801 140.648C45.4915 140.244 44.8722 140.043 44.1222 140.043C42.9119 140.043 41.9801 140.568 41.3267 141.619C40.679 142.67 40.3523 144.114 40.3466 145.949H40.4659C40.7443 145.449 41.1051 145.02 41.5483 144.662C41.9915 144.304 42.4915 144.028 43.0483 143.835C43.6108 143.636 44.2045 143.537 44.8295 143.537C45.8523 143.537 46.7699 143.781 47.5824 144.27C48.4006 144.759 49.0483 145.432 49.5256 146.29C50.0028 147.142 50.2386 148.119 50.233 149.222C50.2386 150.369 49.9773 151.401 49.4489 152.315C48.9205 153.224 48.1847 153.94 47.2415 154.463C46.2983 154.986 45.1989 155.244 43.9432 155.239ZM43.9261 152.682C44.5455 152.682 45.0994 152.531 45.5881 152.23C46.0767 151.929 46.4631 151.523 46.7472 151.011C47.0313 150.5 47.1705 149.926 47.1648 149.29C47.1705 148.665 47.0341 148.099 46.7557 147.594C46.483 147.088 46.1051 146.687 45.6222 146.392C45.1392 146.097 44.5881 145.949 43.9688 145.949C43.5085 145.949 43.0795 146.037 42.6818 146.213C42.2841 146.389 41.9375 146.634 41.642 146.946C41.3466 147.253 41.1136 147.611 40.9432 148.02C40.7784 148.423 40.6932 148.855 40.6875 149.315C40.6932 149.923 40.8352 150.483 41.1136 150.994C41.392 151.506 41.7756 151.915 42.2642 152.222C42.7528 152.528 43.3068 152.682 43.9261 152.682ZM59.5653 155.332C58.1619 155.332 56.9574 154.977 55.9517 154.267C54.9517 153.551 54.1818 152.52 53.642 151.173C53.108 149.821 52.8409 148.193 52.8409 146.29C52.8466 144.386 53.1165 142.767 53.6506 141.432C54.1903 140.091 54.9602 139.068 55.9602 138.364C56.9659 137.659 58.1676 137.307 59.5653 137.307C60.9631 137.307 62.1648 137.659 63.1705 138.364C64.1761 139.068 64.946 140.091 65.4801 141.432C66.0199 142.773 66.2898 144.392 66.2898 146.29C66.2898 148.199 66.0199 149.83 65.4801 151.182C64.946 152.528 64.1761 153.557 63.1705 154.267C62.1705 154.977 60.9688 155.332 59.5653 155.332ZM59.5653 152.665C60.6563 152.665 61.517 152.128 62.1477 151.054C62.7841 149.974 63.1023 148.386 63.1023 146.29C63.1023 144.903 62.9574 143.739 62.6676 142.795C62.3778 141.852 61.9688 141.142 61.4403 140.665C60.9119 140.182 60.2869 139.94 59.5653 139.94C58.4801 139.94 57.6222 140.48 56.9915 141.56C56.3608 142.634 56.0426 144.21 56.0369 146.29C56.0313 147.682 56.1705 148.852 56.4545 149.801C56.7443 150.75 57.1534 151.466 57.6818 151.949C58.2102 152.426 58.8381 152.665 59.5653 152.665Z" fill="black"/>
<path d="M105.173 472.455H107.787V482.682C107.782 483.619 107.583 484.427 107.19 485.104C106.797 485.776 106.248 486.295 105.543 486.659C104.842 487.019 104.025 487.199 103.092 487.199C102.24 487.199 101.473 487.047 100.791 486.744C100.114 486.437 99.5767 485.982 99.179 485.381C98.7813 484.779 98.5824 484.031 98.5824 483.136H101.203C101.208 483.529 101.293 483.868 101.459 484.152C101.629 484.436 101.864 484.654 102.162 484.805C102.46 484.957 102.804 485.033 103.192 485.033C103.613 485.033 103.971 484.945 104.264 484.77C104.558 484.59 104.78 484.325 104.932 483.974C105.088 483.624 105.169 483.193 105.173 482.682V472.455ZM113.671 487.22C112.98 487.22 112.357 487.097 111.803 486.851C111.254 486.6 110.818 486.231 110.496 485.743C110.179 485.255 110.021 484.654 110.021 483.939C110.021 483.323 110.134 482.814 110.362 482.412C110.589 482.009 110.899 481.688 111.292 481.446C111.685 481.205 112.128 481.022 112.62 480.899C113.117 480.771 113.631 480.679 114.161 480.622C114.8 480.556 115.319 480.497 115.717 480.445C116.114 480.388 116.403 480.303 116.583 480.189C116.768 480.071 116.86 479.888 116.86 479.642V479.599C116.86 479.064 116.701 478.65 116.384 478.357C116.067 478.063 115.61 477.916 115.013 477.916C114.384 477.916 113.884 478.054 113.515 478.328C113.15 478.603 112.904 478.927 112.776 479.301L110.376 478.96C110.565 478.297 110.878 477.743 111.313 477.298C111.749 476.848 112.281 476.512 112.911 476.29C113.541 476.062 114.237 475.949 114.999 475.949C115.525 475.949 116.048 476.01 116.569 476.134C117.09 476.257 117.566 476.46 117.996 476.744C118.427 477.024 118.773 477.405 119.033 477.888C119.299 478.371 119.431 478.974 119.431 479.699V487H116.96V485.501H116.874C116.718 485.804 116.498 486.089 116.214 486.354C115.934 486.614 115.582 486.825 115.156 486.986C114.734 487.142 114.239 487.22 113.671 487.22ZM114.339 485.331C114.855 485.331 115.302 485.229 115.681 485.026C116.06 484.817 116.351 484.543 116.555 484.202C116.763 483.861 116.867 483.489 116.867 483.087V481.801C116.787 481.867 116.649 481.929 116.455 481.986C116.266 482.043 116.053 482.092 115.816 482.135C115.579 482.178 115.345 482.215 115.113 482.249C114.881 482.282 114.68 482.31 114.509 482.334C114.126 482.386 113.782 482.471 113.479 482.589C113.176 482.708 112.937 482.874 112.762 483.087C112.587 483.295 112.499 483.565 112.499 483.896C112.499 484.37 112.672 484.727 113.018 484.969C113.363 485.21 113.804 485.331 114.339 485.331ZM124.587 480.608V487H122.016V476.091H124.474V477.945H124.602C124.853 477.334 125.253 476.848 125.802 476.489C126.356 476.129 127.04 475.949 127.854 475.949C128.607 475.949 129.263 476.11 129.822 476.432C130.385 476.754 130.821 477.22 131.129 477.831C131.441 478.442 131.595 479.183 131.59 480.054V487H129.019V480.452C129.019 479.723 128.83 479.152 128.451 478.74C128.077 478.328 127.558 478.122 126.896 478.122C126.446 478.122 126.046 478.222 125.695 478.42C125.35 478.615 125.077 478.896 124.879 479.266C124.684 479.635 124.587 480.082 124.587 480.608Z" fill="black"/>
<path d="M167.435 487V472.455H176.753V474.663H170.07V478.612H176.114V480.821H170.07V487H167.435ZM183.069 487.213C181.975 487.213 181.03 486.986 180.235 486.531C179.444 486.072 178.836 485.423 178.409 484.585C177.983 483.742 177.77 482.75 177.77 481.609C177.77 480.487 177.983 479.502 178.409 478.655C178.84 477.803 179.442 477.14 180.213 476.666C180.985 476.188 181.892 475.949 182.934 475.949C183.606 475.949 184.24 476.058 184.837 476.276C185.438 476.489 185.969 476.82 186.428 477.27C186.892 477.72 187.257 478.293 187.522 478.989C187.787 479.68 187.919 480.504 187.919 481.46V482.249H178.978V480.516H185.455C185.45 480.023 185.344 479.585 185.135 479.202C184.927 478.813 184.636 478.508 184.262 478.286C183.892 478.063 183.462 477.952 182.969 477.952C182.444 477.952 181.982 478.08 181.584 478.335C181.186 478.586 180.876 478.918 180.654 479.33C180.436 479.737 180.325 480.184 180.32 480.672V482.185C180.32 482.819 180.436 483.364 180.668 483.818C180.9 484.268 181.224 484.614 181.641 484.855C182.058 485.092 182.545 485.21 183.104 485.21C183.478 485.21 183.817 485.158 184.12 485.054C184.423 484.945 184.685 484.786 184.908 484.578C185.131 484.37 185.299 484.112 185.412 483.804L187.813 484.074C187.661 484.708 187.373 485.262 186.946 485.736C186.525 486.205 185.985 486.569 185.327 486.83C184.669 487.085 183.916 487.213 183.069 487.213ZM190.208 487V472.455H192.779V477.895H192.886C193.018 477.63 193.205 477.348 193.447 477.05C193.688 476.747 194.015 476.489 194.427 476.276C194.839 476.058 195.364 475.949 196.004 475.949C196.846 475.949 197.606 476.164 198.283 476.595C198.965 477.021 199.505 477.653 199.903 478.491C200.305 479.325 200.506 480.348 200.506 481.56C200.506 482.758 200.31 483.776 199.917 484.614C199.524 485.452 198.989 486.091 198.312 486.531C197.635 486.972 196.868 487.192 196.011 487.192C195.386 487.192 194.867 487.088 194.455 486.879C194.043 486.671 193.712 486.42 193.461 486.126C193.215 485.828 193.023 485.546 192.886 485.281H192.737V487H190.208ZM192.729 481.545C192.729 482.251 192.829 482.869 193.028 483.399C193.231 483.929 193.522 484.344 193.901 484.642C194.285 484.936 194.749 485.082 195.293 485.082C195.862 485.082 196.337 484.931 196.721 484.628C197.104 484.32 197.393 483.901 197.587 483.371C197.786 482.836 197.886 482.227 197.886 481.545C197.886 480.868 197.789 480.267 197.594 479.741C197.4 479.216 197.112 478.804 196.728 478.506C196.344 478.207 195.866 478.058 195.293 478.058C194.744 478.058 194.278 478.203 193.894 478.491C193.511 478.78 193.219 479.185 193.021 479.706C192.826 480.227 192.729 480.84 192.729 481.545Z" fill="black"/>
<path d="M235.435 472.455H238.659L242.977 482.994H243.148L247.466 472.455H250.69V487H248.162V477.007H248.027L244.007 486.957H242.118L238.098 476.986H237.963V487H235.435V472.455ZM256.585 487.22C255.894 487.22 255.271 487.097 254.717 486.851C254.168 486.6 253.732 486.231 253.411 485.743C253.093 485.255 252.935 484.654 252.935 483.939C252.935 483.323 253.048 482.814 253.276 482.412C253.503 482.009 253.813 481.688 254.206 481.446C254.599 481.205 255.042 481.022 255.534 480.899C256.031 480.771 256.545 480.679 257.075 480.622C257.714 480.556 258.233 480.497 258.631 480.445C259.028 480.388 259.317 480.303 259.497 480.189C259.682 480.071 259.774 479.888 259.774 479.642V479.599C259.774 479.064 259.616 478.65 259.298 478.357C258.981 478.063 258.524 477.916 257.928 477.916C257.298 477.916 256.798 478.054 256.429 478.328C256.064 478.603 255.818 478.927 255.69 479.301L253.29 478.96C253.479 478.297 253.792 477.743 254.227 477.298C254.663 476.848 255.196 476.512 255.825 476.29C256.455 476.062 257.151 475.949 257.913 475.949C258.439 475.949 258.962 476.01 259.483 476.134C260.004 476.257 260.48 476.46 260.911 476.744C261.341 477.024 261.687 477.405 261.947 477.888C262.213 478.371 262.345 478.974 262.345 479.699V487H259.874V485.501H259.788C259.632 485.804 259.412 486.089 259.128 486.354C258.848 486.614 258.496 486.825 258.07 486.986C257.648 487.142 257.153 487.22 256.585 487.22ZM257.253 485.331C257.769 485.331 258.216 485.229 258.595 485.026C258.974 484.817 259.265 484.543 259.469 484.202C259.677 483.861 259.781 483.489 259.781 483.087V481.801C259.701 481.867 259.563 481.929 259.369 481.986C259.18 482.043 258.967 482.092 258.73 482.135C258.493 482.178 258.259 482.215 258.027 482.249C257.795 482.282 257.594 482.31 257.423 482.334C257.04 482.386 256.696 482.471 256.393 482.589C256.09 482.708 255.851 482.874 255.676 483.087C255.501 483.295 255.413 483.565 255.413 483.896C255.413 484.37 255.586 484.727 255.932 484.969C256.277 485.21 256.718 485.331 257.253 485.331ZM264.93 487V476.091H267.423V477.909H267.537C267.736 477.279 268.077 476.794 268.56 476.453C269.047 476.107 269.604 475.935 270.229 475.935C270.371 475.935 270.529 475.942 270.705 475.956C270.884 475.965 271.034 475.982 271.152 476.006V478.371C271.043 478.333 270.87 478.3 270.634 478.271C270.402 478.238 270.177 478.222 269.959 478.222C269.49 478.222 269.069 478.323 268.695 478.527C268.325 478.726 268.034 479.003 267.821 479.358C267.608 479.713 267.501 480.123 267.501 480.587V487H264.93Z" fill="black"/>
<path d="M305.303 487H302.49L307.611 472.455H310.864L315.991 487H313.179L309.294 475.438H309.18L305.303 487ZM305.395 481.297H313.065V483.413H305.395V481.297ZM317.794 491.091V476.091H320.322V477.895H320.471C320.604 477.63 320.791 477.348 321.032 477.05C321.274 476.747 321.6 476.489 322.012 476.276C322.424 476.058 322.95 475.949 323.589 475.949C324.432 475.949 325.192 476.164 325.869 476.595C326.551 477.021 327.091 477.653 327.488 478.491C327.891 479.325 328.092 480.348 328.092 481.56C328.092 482.758 327.895 483.776 327.502 484.614C327.109 485.452 326.574 486.091 325.897 486.531C325.22 486.972 324.453 487.192 323.596 487.192C322.971 487.192 322.453 487.088 322.041 486.879C321.629 486.671 321.297 486.42 321.047 486.126C320.8 485.828 320.609 485.546 320.471 485.281H320.365V491.091H317.794ZM320.315 481.545C320.315 482.251 320.414 482.869 320.613 483.399C320.817 483.929 321.108 484.344 321.487 484.642C321.87 484.936 322.334 485.082 322.879 485.082C323.447 485.082 323.923 484.931 324.306 484.628C324.69 484.32 324.979 483.901 325.173 483.371C325.372 482.836 325.471 482.227 325.471 481.545C325.471 480.868 325.374 480.267 325.18 479.741C324.986 479.216 324.697 478.804 324.314 478.506C323.93 478.207 323.452 478.058 322.879 478.058C322.33 478.058 321.863 478.203 321.48 478.491C321.096 478.78 320.805 479.185 320.606 479.706C320.412 480.227 320.315 480.84 320.315 481.545ZM330.294 487V476.091H332.787V477.909H332.9C333.099 477.279 333.44 476.794 333.923 476.453C334.411 476.107 334.967 475.935 335.592 475.935C335.734 475.935 335.893 475.942 336.068 475.956C336.248 475.965 336.397 475.982 336.515 476.006V478.371C336.406 478.333 336.234 478.3 335.997 478.271C335.765 478.238 335.54 478.222 335.322 478.222C334.853 478.222 334.432 478.323 334.058 478.527C333.689 478.726 333.397 479.003 333.184 479.358C332.971 479.713 332.865 480.123 332.865 480.587V487H330.294Z" fill="black"/>
<path d="M371.435 472.455H374.659L378.977 482.994H379.148L383.466 472.455H386.69V487H384.162V477.007H384.027L380.007 486.957H378.118L374.098 476.986H373.963V487H371.435V472.455ZM392.585 487.22C391.894 487.22 391.271 487.097 390.717 486.851C390.168 486.6 389.732 486.231 389.411 485.743C389.093 485.255 388.935 484.654 388.935 483.939C388.935 483.323 389.048 482.814 389.276 482.412C389.503 482.009 389.813 481.688 390.206 481.446C390.599 481.205 391.042 481.022 391.534 480.899C392.031 480.771 392.545 480.679 393.075 480.622C393.714 480.556 394.233 480.497 394.631 480.445C395.028 480.388 395.317 480.303 395.497 480.189C395.682 480.071 395.774 479.888 395.774 479.642V479.599C395.774 479.064 395.616 478.65 395.298 478.357C394.981 478.063 394.524 477.916 393.928 477.916C393.298 477.916 392.798 478.054 392.429 478.328C392.064 478.603 391.818 478.927 391.69 479.301L389.29 478.96C389.479 478.297 389.792 477.743 390.227 477.298C390.663 476.848 391.196 476.512 391.825 476.29C392.455 476.062 393.151 475.949 393.913 475.949C394.439 475.949 394.962 476.01 395.483 476.134C396.004 476.257 396.48 476.46 396.911 476.744C397.341 477.024 397.687 477.405 397.947 477.888C398.213 478.371 398.345 478.974 398.345 479.699V487H395.874V485.501H395.788C395.632 485.804 395.412 486.089 395.128 486.354C394.848 486.614 394.496 486.825 394.07 486.986C393.648 487.142 393.153 487.22 392.585 487.22ZM393.253 485.331C393.769 485.331 394.216 485.229 394.595 485.026C394.974 484.817 395.265 484.543 395.469 484.202C395.677 483.861 395.781 483.489 395.781 483.087V481.801C395.701 481.867 395.563 481.929 395.369 481.986C395.18 482.043 394.967 482.092 394.73 482.135C394.493 482.178 394.259 482.215 394.027 482.249C393.795 482.282 393.594 482.31 393.423 482.334C393.04 482.386 392.696 482.471 392.393 482.589C392.09 482.708 391.851 482.874 391.676 483.087C391.501 483.295 391.413 483.565 391.413 483.896C391.413 484.37 391.586 484.727 391.932 484.969C392.277 485.21 392.718 485.331 393.253 485.331ZM402.138 491.091C401.787 491.091 401.463 491.063 401.165 491.006C400.871 490.954 400.637 490.892 400.462 490.821L401.058 488.818C401.432 488.927 401.766 488.979 402.06 488.974C402.353 488.97 402.611 488.877 402.834 488.697C403.061 488.522 403.253 488.229 403.409 487.817L403.629 487.227L399.673 476.091H402.401L404.915 484.33H405.028L407.55 476.091H410.284L405.916 488.321C405.713 488.899 405.443 489.393 405.107 489.805C404.77 490.222 404.358 490.539 403.871 490.757C403.388 490.98 402.81 491.091 402.138 491.091Z" fill="black"/>
<path d="M445.173 472.455H447.787V482.682C447.782 483.619 447.583 484.427 447.19 485.104C446.797 485.776 446.248 486.295 445.543 486.659C444.842 487.019 444.025 487.199 443.092 487.199C442.24 487.199 441.473 487.047 440.791 486.744C440.114 486.437 439.577 485.982 439.179 485.381C438.781 484.779 438.582 484.031 438.582 483.136H441.203C441.208 483.529 441.293 483.868 441.459 484.152C441.629 484.436 441.864 484.654 442.162 484.805C442.46 484.957 442.804 485.033 443.192 485.033C443.613 485.033 443.971 484.945 444.264 484.77C444.558 484.59 444.78 484.325 444.932 483.974C445.088 483.624 445.169 483.193 445.173 482.682V472.455ZM457.485 482.412V476.091H460.056V487H457.563V485.061H457.45C457.203 485.672 456.799 486.171 456.235 486.56C455.676 486.948 454.987 487.142 454.168 487.142C453.453 487.142 452.821 486.983 452.272 486.666C451.728 486.344 451.301 485.878 450.994 485.267C450.686 484.652 450.532 483.908 450.532 483.037V476.091H453.103V482.639C453.103 483.33 453.292 483.88 453.671 484.287C454.05 484.694 454.547 484.898 455.163 484.898C455.541 484.898 455.908 484.805 456.263 484.621C456.619 484.436 456.91 484.161 457.137 483.797C457.369 483.428 457.485 482.966 457.485 482.412ZM465.271 480.608V487H462.7V476.091H465.157V477.945H465.285C465.536 477.334 465.936 476.848 466.485 476.489C467.039 476.129 467.724 475.949 468.538 475.949C469.291 475.949 469.947 476.11 470.505 476.432C471.069 476.754 471.504 477.22 471.812 477.831C472.125 478.442 472.279 479.183 472.274 480.054V487H469.703V480.452C469.703 479.723 469.513 479.152 469.135 478.74C468.761 478.328 468.242 478.122 467.579 478.122C467.129 478.122 466.729 478.222 466.379 478.42C466.033 478.615 465.761 478.896 465.562 479.266C465.368 479.635 465.271 480.082 465.271 480.608Z" fill="black"/>
<path d="M513.173 472.455H515.787V482.682C515.782 483.619 515.583 484.427 515.19 485.104C514.797 485.776 514.248 486.295 513.543 486.659C512.842 487.019 512.025 487.199 511.092 487.199C510.24 487.199 509.473 487.047 508.791 486.744C508.114 486.437 507.577 485.982 507.179 485.381C506.781 484.779 506.582 484.031 506.582 483.136H509.203C509.208 483.529 509.293 483.868 509.459 484.152C509.629 484.436 509.864 484.654 510.162 484.805C510.46 484.957 510.804 485.033 511.192 485.033C511.613 485.033 511.971 484.945 512.264 484.77C512.558 484.59 512.78 484.325 512.932 483.974C513.088 483.624 513.169 483.193 513.173 482.682V472.455ZM525.485 482.412V476.091H528.056V487H525.563V485.061H525.45C525.203 485.672 524.799 486.171 524.235 486.56C523.676 486.948 522.987 487.142 522.168 487.142C521.453 487.142 520.821 486.983 520.272 486.666C519.728 486.344 519.301 485.878 518.994 485.267C518.686 484.652 518.532 483.908 518.532 483.037V476.091H521.103V482.639C521.103 483.33 521.292 483.88 521.671 484.287C522.05 484.694 522.547 484.898 523.163 484.898C523.541 484.898 523.908 484.805 524.263 484.621C524.619 484.436 524.91 484.161 525.137 483.797C525.369 483.428 525.485 482.966 525.485 482.412ZM533.271 472.455V487H530.7V472.455H533.271Z" fill="black"/>
<path d="M577.303 487H574.49L579.611 472.455H582.864L587.991 487H585.179L581.294 475.438H581.18L577.303 487ZM577.395 481.297H585.065V483.413H577.395V481.297ZM596.747 482.412V476.091H599.318V487H596.825V485.061H596.711C596.465 485.672 596.06 486.171 595.497 486.56C594.938 486.948 594.249 487.142 593.43 487.142C592.715 487.142 592.083 486.983 591.534 486.666C590.989 486.344 590.563 485.878 590.255 485.267C589.948 484.652 589.794 483.908 589.794 483.037V476.091H592.365V482.639C592.365 483.33 592.554 483.88 592.933 484.287C593.312 484.694 593.809 484.898 594.424 484.898C594.803 484.898 595.17 484.805 595.525 484.621C595.88 484.436 596.172 484.161 596.399 483.797C596.631 483.428 596.747 482.966 596.747 482.412ZM606.706 491.318C605.783 491.318 604.99 491.193 604.327 490.942C603.664 490.696 603.131 490.364 602.729 489.947C602.326 489.531 602.047 489.069 601.891 488.562L604.206 488.001C604.31 488.214 604.462 488.425 604.661 488.634C604.859 488.847 605.127 489.022 605.463 489.159C605.804 489.301 606.232 489.372 606.749 489.372C607.478 489.372 608.081 489.195 608.56 488.839C609.038 488.489 609.277 487.911 609.277 487.107V485.04H609.149C609.017 485.305 608.822 485.577 608.567 485.857C608.316 486.136 607.982 486.37 607.565 486.56C607.153 486.749 606.635 486.844 606.01 486.844C605.172 486.844 604.412 486.647 603.73 486.254C603.053 485.857 602.513 485.265 602.111 484.479C601.713 483.688 601.514 482.698 601.514 481.51C601.514 480.312 601.713 479.301 602.111 478.477C602.513 477.649 603.055 477.021 603.737 476.595C604.419 476.164 605.179 475.949 606.017 475.949C606.656 475.949 607.182 476.058 607.594 476.276C608.01 476.489 608.342 476.747 608.588 477.05C608.834 477.348 609.021 477.63 609.149 477.895H609.291V476.091H611.827V487.178C611.827 488.11 611.604 488.882 611.159 489.493C610.714 490.104 610.106 490.561 609.334 490.864C608.562 491.167 607.686 491.318 606.706 491.318ZM606.727 484.827C607.272 484.827 607.736 484.694 608.119 484.429C608.503 484.164 608.794 483.783 608.993 483.286C609.192 482.788 609.291 482.192 609.291 481.496C609.291 480.809 609.192 480.208 608.993 479.692C608.799 479.176 608.51 478.776 608.126 478.491C607.748 478.203 607.281 478.058 606.727 478.058C606.154 478.058 605.676 478.207 605.293 478.506C604.909 478.804 604.62 479.214 604.426 479.734C604.232 480.25 604.135 480.838 604.135 481.496C604.135 482.163 604.232 482.748 604.426 483.25C604.625 483.747 604.916 484.135 605.3 484.415C605.688 484.689 606.164 484.827 606.727 484.827Z" fill="black"/>
<path d="M651.339 476.453C651.273 475.833 650.994 475.35 650.501 475.004C650.014 474.659 649.379 474.486 648.598 474.486C648.049 474.486 647.578 474.569 647.185 474.734C646.792 474.9 646.491 475.125 646.283 475.409C646.074 475.693 645.968 476.018 645.963 476.382C645.963 476.685 646.032 476.948 646.169 477.17C646.311 477.393 646.503 477.582 646.744 477.739C646.986 477.89 647.253 478.018 647.547 478.122C647.84 478.226 648.136 478.314 648.435 478.385L649.798 478.726C650.348 478.854 650.875 479.027 651.382 479.244C651.893 479.462 652.35 479.737 652.753 480.068C653.16 480.4 653.482 480.8 653.719 481.268C653.955 481.737 654.074 482.286 654.074 482.916C654.074 483.768 653.856 484.519 653.42 485.168C652.985 485.812 652.355 486.316 651.531 486.68C650.712 487.04 649.72 487.22 648.555 487.22C647.424 487.22 646.441 487.045 645.608 486.695C644.779 486.344 644.131 485.833 643.662 485.161C643.198 484.488 642.947 483.669 642.909 482.703H645.501C645.539 483.21 645.696 483.631 645.97 483.967C646.245 484.304 646.602 484.554 647.043 484.72C647.488 484.886 647.985 484.969 648.534 484.969C649.107 484.969 649.609 484.884 650.04 484.713C650.475 484.538 650.816 484.296 651.062 483.989C651.309 483.676 651.434 483.312 651.439 482.895C651.434 482.516 651.323 482.204 651.105 481.957C650.887 481.706 650.582 481.498 650.189 481.332C649.801 481.162 649.346 481.01 648.825 480.878L647.17 480.452C645.973 480.144 645.026 479.678 644.33 479.053C643.638 478.423 643.293 477.587 643.293 476.545C643.293 475.688 643.525 474.938 643.989 474.294C644.457 473.65 645.094 473.151 645.899 472.795C646.704 472.436 647.616 472.256 648.634 472.256C649.666 472.256 650.57 472.436 651.347 472.795C652.128 473.151 652.741 473.645 653.186 474.28C653.631 474.91 653.861 475.634 653.875 476.453H651.339ZM661.139 487.213C660.045 487.213 659.1 486.986 658.305 486.531C657.514 486.072 656.906 485.423 656.48 484.585C656.054 483.742 655.841 482.75 655.841 481.609C655.841 480.487 656.054 479.502 656.48 478.655C656.911 477.803 657.512 477.14 658.284 476.666C659.056 476.188 659.962 475.949 661.004 475.949C661.676 475.949 662.311 476.058 662.907 476.276C663.509 476.489 664.039 476.82 664.498 477.27C664.962 477.72 665.327 478.293 665.592 478.989C665.857 479.68 665.99 480.504 665.99 481.46V482.249H657.048V480.516H663.525C663.52 480.023 663.414 479.585 663.206 479.202C662.997 478.813 662.706 478.508 662.332 478.286C661.963 478.063 661.532 477.952 661.039 477.952C660.514 477.952 660.052 478.08 659.654 478.335C659.257 478.586 658.947 478.918 658.724 479.33C658.506 479.737 658.395 480.184 658.39 480.672V482.185C658.39 482.819 658.506 483.364 658.738 483.818C658.97 484.268 659.295 484.614 659.711 484.855C660.128 485.092 660.616 485.21 661.174 485.21C661.548 485.21 661.887 485.158 662.19 485.054C662.493 484.945 662.756 484.786 662.978 484.578C663.201 484.37 663.369 484.112 663.483 483.804L665.883 484.074C665.732 484.708 665.443 485.262 665.017 485.736C664.595 486.205 664.056 486.569 663.397 486.83C662.739 487.085 661.986 487.213 661.139 487.213ZM668.165 491.091V476.091H670.693V477.895H670.842C670.975 477.63 671.162 477.348 671.403 477.05C671.645 476.747 671.972 476.489 672.384 476.276C672.795 476.058 673.321 475.949 673.96 475.949C674.803 475.949 675.563 476.164 676.24 476.595C676.922 477.021 677.462 477.653 677.859 478.491C678.262 479.325 678.463 480.348 678.463 481.56C678.463 482.758 678.267 483.776 677.874 484.614C677.481 485.452 676.946 486.091 676.268 486.531C675.591 486.972 674.824 487.192 673.967 487.192C673.342 487.192 672.824 487.088 672.412 486.879C672 486.671 671.669 486.42 671.418 486.126C671.171 485.828 670.98 485.546 670.842 485.281H670.736V491.091H668.165ZM670.686 481.545C670.686 482.251 670.786 482.869 670.984 483.399C671.188 483.929 671.479 484.344 671.858 484.642C672.241 484.936 672.705 485.082 673.25 485.082C673.818 485.082 674.294 484.931 674.678 484.628C675.061 484.32 675.35 483.901 675.544 483.371C675.743 482.836 675.842 482.227 675.842 481.545C675.842 480.868 675.745 480.267 675.551 479.741C675.357 479.216 675.068 478.804 674.685 478.506C674.301 478.207 673.823 478.058 673.25 478.058C672.701 478.058 672.234 478.203 671.851 478.491C671.467 478.78 671.176 479.185 670.977 479.706C670.783 480.227 670.686 480.84 670.686 481.545Z" fill="black"/>
<path d="M724.432 479.727C724.432 481.295 724.138 482.637 723.551 483.754C722.969 484.867 722.173 485.719 721.165 486.311C720.161 486.903 719.022 487.199 717.749 487.199C716.475 487.199 715.334 486.903 714.325 486.311C713.321 485.714 712.526 484.86 711.939 483.747C711.357 482.63 711.065 481.29 711.065 479.727C711.065 478.16 711.357 476.82 711.939 475.707C712.526 474.59 713.321 473.735 714.325 473.143C715.334 472.552 716.475 472.256 717.749 472.256C719.022 472.256 720.161 472.552 721.165 473.143C722.173 473.735 722.969 474.59 723.551 475.707C724.138 476.82 724.432 478.16 724.432 479.727ZM721.783 479.727C721.783 478.624 721.61 477.694 721.264 476.936C720.923 476.174 720.45 475.598 719.844 475.21C719.238 474.817 718.539 474.621 717.749 474.621C716.958 474.621 716.259 474.817 715.653 475.21C715.047 475.598 714.571 476.174 714.226 476.936C713.885 477.694 713.714 478.624 713.714 479.727C713.714 480.83 713.885 481.763 714.226 482.526C714.571 483.283 715.047 483.858 715.653 484.251C716.259 484.64 716.958 484.834 717.749 484.834C718.539 484.834 719.238 484.64 719.844 484.251C720.45 483.858 720.923 483.283 721.264 482.526C721.61 481.763 721.783 480.83 721.783 479.727ZM731.568 487.213C730.479 487.213 729.544 486.974 728.762 486.496C727.986 486.018 727.387 485.357 726.966 484.514C726.549 483.667 726.341 482.691 726.341 481.588C726.341 480.48 726.554 479.502 726.98 478.655C727.406 477.803 728.007 477.14 728.784 476.666C729.565 476.188 730.488 475.949 731.554 475.949C732.439 475.949 733.223 476.112 733.904 476.439C734.591 476.761 735.138 477.218 735.545 477.81C735.952 478.397 736.184 479.083 736.241 479.869H733.784C733.684 479.344 733.448 478.906 733.074 478.555C732.704 478.2 732.209 478.023 731.589 478.023C731.064 478.023 730.602 478.165 730.204 478.449C729.806 478.728 729.496 479.131 729.274 479.656C729.056 480.182 728.947 480.812 728.947 481.545C728.947 482.289 729.056 482.928 729.274 483.463C729.492 483.993 729.797 484.403 730.19 484.692C730.588 484.976 731.054 485.118 731.589 485.118C731.968 485.118 732.306 485.047 732.605 484.905C732.908 484.758 733.161 484.547 733.365 484.273C733.568 483.998 733.708 483.664 733.784 483.271H736.241C736.18 484.043 735.952 484.727 735.559 485.324C735.166 485.916 734.631 486.38 733.954 486.716C733.277 487.047 732.482 487.213 731.568 487.213ZM743.8 476.091V478.08H737.528V476.091H743.8ZM739.077 473.477H741.648V483.719C741.648 484.064 741.7 484.33 741.804 484.514C741.913 484.694 742.055 484.817 742.23 484.884C742.405 484.95 742.599 484.983 742.812 484.983C742.973 484.983 743.12 484.971 743.253 484.947C743.39 484.924 743.494 484.902 743.565 484.884L743.999 486.893C743.861 486.941 743.665 486.993 743.409 487.05C743.158 487.107 742.85 487.14 742.486 487.149C741.842 487.168 741.262 487.071 740.746 486.858C740.23 486.64 739.82 486.304 739.517 485.849C739.219 485.395 739.072 484.827 739.077 484.145V473.477Z" fill="black"/>
<path d="M791.388 472.455V487H789.044L782.19 477.092H782.07V487H779.435V472.455H781.793L788.639 482.369H788.767V472.455H791.388ZM798.904 487.213C797.838 487.213 796.915 486.979 796.134 486.51C795.353 486.041 794.747 485.385 794.316 484.543C793.89 483.7 793.676 482.715 793.676 481.588C793.676 480.461 793.89 479.474 794.316 478.626C794.747 477.779 795.353 477.121 796.134 476.652C796.915 476.183 797.838 475.949 798.904 475.949C799.969 475.949 800.892 476.183 801.674 476.652C802.455 477.121 803.059 477.779 803.485 478.626C803.916 479.474 804.131 480.461 804.131 481.588C804.131 482.715 803.916 483.7 803.485 484.543C803.059 485.385 802.455 486.041 801.674 486.51C800.892 486.979 799.969 487.213 798.904 487.213ZM798.918 485.153C799.496 485.153 799.979 484.995 800.367 484.678C800.755 484.356 801.044 483.925 801.233 483.385C801.427 482.845 801.525 482.244 801.525 481.581C801.525 480.913 801.427 480.31 801.233 479.77C801.044 479.225 800.755 478.792 800.367 478.47C799.979 478.148 799.496 477.987 798.918 477.987C798.326 477.987 797.834 478.148 797.441 478.47C797.052 478.792 796.761 479.225 796.567 479.77C796.378 480.31 796.283 480.913 796.283 481.581C796.283 482.244 796.378 482.845 796.567 483.385C796.761 483.925 797.052 484.356 797.441 484.678C797.834 484.995 798.326 485.153 798.918 485.153ZM815.686 476.091L811.801 487H808.961L805.076 476.091H807.817L810.324 484.195H810.438L812.952 476.091H815.686Z" fill="black"/>
<path d="M852.364 487H847.435V472.455H852.463C853.907 472.455 855.148 472.746 856.185 473.328C857.226 473.906 858.027 474.737 858.585 475.821C859.144 476.905 859.423 478.203 859.423 479.713C859.423 481.228 859.142 482.53 858.578 483.619C858.019 484.708 857.212 485.544 856.156 486.126C855.105 486.709 853.841 487 852.364 487ZM850.07 484.72H852.236C853.249 484.72 854.094 484.536 854.771 484.166C855.448 483.792 855.957 483.236 856.298 482.497C856.639 481.754 856.81 480.826 856.81 479.713C856.81 478.6 856.639 477.677 856.298 476.943C855.957 476.205 855.453 475.653 854.786 475.288C854.123 474.919 853.299 474.734 852.314 474.734H850.07V484.72ZM866.643 487.213C865.549 487.213 864.604 486.986 863.809 486.531C863.018 486.072 862.41 485.423 861.984 484.585C861.558 483.742 861.344 482.75 861.344 481.609C861.344 480.487 861.558 479.502 861.984 478.655C862.415 477.803 863.016 477.14 863.788 476.666C864.559 476.188 865.466 475.949 866.508 475.949C867.18 475.949 867.815 476.058 868.411 476.276C869.013 476.489 869.543 476.82 870.002 477.27C870.466 477.72 870.831 478.293 871.096 478.989C871.361 479.68 871.494 480.504 871.494 481.46V482.249H862.552V480.516H869.029C869.024 480.023 868.918 479.585 868.71 479.202C868.501 478.813 868.21 478.508 867.836 478.286C867.467 478.063 867.036 477.952 866.543 477.952C866.018 477.952 865.556 478.08 865.158 478.335C864.761 478.586 864.451 478.918 864.228 479.33C864.01 479.737 863.899 480.184 863.894 480.672V482.185C863.894 482.819 864.01 483.364 864.242 483.818C864.474 484.268 864.799 484.614 865.215 484.855C865.632 485.092 866.12 485.21 866.678 485.21C867.052 485.21 867.391 485.158 867.694 485.054C867.997 484.945 868.26 484.786 868.482 484.578C868.705 484.37 868.873 484.112 868.987 483.804L871.387 484.074C871.236 484.708 870.947 485.262 870.521 485.736C870.099 486.205 869.559 486.569 868.901 486.83C868.243 487.085 867.49 487.213 866.643 487.213ZM878.427 487.213C877.338 487.213 876.403 486.974 875.622 486.496C874.845 486.018 874.246 485.357 873.825 484.514C873.408 483.667 873.2 482.691 873.2 481.588C873.2 480.48 873.413 479.502 873.839 478.655C874.265 477.803 874.867 477.14 875.643 476.666C876.424 476.188 877.348 475.949 878.413 475.949C879.298 475.949 880.082 476.112 880.764 476.439C881.45 476.761 881.997 477.218 882.404 477.81C882.812 478.397 883.044 479.083 883.1 479.869H880.643C880.544 479.344 880.307 478.906 879.933 478.555C879.564 478.2 879.069 478.023 878.449 478.023C877.923 478.023 877.461 478.165 877.064 478.449C876.666 478.728 876.356 479.131 876.133 479.656C875.915 480.182 875.806 480.812 875.806 481.545C875.806 482.289 875.915 482.928 876.133 483.463C876.351 483.993 876.656 484.403 877.049 484.692C877.447 484.976 877.913 485.118 878.449 485.118C878.827 485.118 879.166 485.047 879.464 484.905C879.767 484.758 880.02 484.547 880.224 484.273C880.428 483.998 880.567 483.664 880.643 483.271H883.1C883.039 484.043 882.812 484.727 882.419 485.324C882.026 485.916 881.491 486.38 880.814 486.716C880.136 487.047 879.341 487.213 878.427 487.213Z" fill="black"/>
<path d="M77 365C194.5 311.833 444.5 214 504.5 248C579.5 290.5 551 429.5 686 406C821 382.5 850.5 359.5 868.5 343.5" stroke="#EAB308" stroke-width="5" stroke-linecap="round"/>
<path d="M78.5 248C92.6667 325.333 157.6 459.8 304 379C507.2 274.2 619.667 303.333 650.5 331C646.833 326.5 661.2 332.7 748 393.5C834.8 454.3 876.5 445.833 886.5 434" stroke="black" stroke-width="5" stroke-linecap="round"/>
<path d="M73 184C258.833 184 658.6 209.2 771 310C883.4 410.8 904.167 425.333 900.5 420" stroke="#2965F1" stroke-width="5" stroke-linecap="round"/>
<rect x="133" y="61" width="31" height="29" fill="#2965F1"/>
<path d="M191.885 73.3622H189.229C189.153 72.9266 189.013 72.5407 188.81 72.2045C188.606 71.8636 188.353 71.5748 188.05 71.3381C187.747 71.1013 187.401 70.9238 187.013 70.8054C186.629 70.6823 186.215 70.6207 185.77 70.6207C184.979 70.6207 184.278 70.8196 183.668 71.2173C183.057 71.6103 182.579 72.188 182.233 72.9503C181.887 73.7079 181.714 74.6335 181.714 75.7273C181.714 76.84 181.887 77.7775 182.233 78.5398C182.583 79.2973 183.062 79.8703 183.668 80.2585C184.278 80.642 184.977 80.8338 185.763 80.8338C186.198 80.8338 186.606 80.777 186.984 80.6634C187.368 80.545 187.711 80.3722 188.014 80.1449C188.322 79.9176 188.58 79.6383 188.788 79.3068C189.001 78.9754 189.148 78.5966 189.229 78.1705L191.885 78.1847C191.786 78.8759 191.57 79.5246 191.239 80.1307C190.912 80.7367 190.483 81.2718 189.953 81.7358C189.423 82.1951 188.803 82.5549 188.092 82.8153C187.382 83.071 186.594 83.1989 185.727 83.1989C184.449 83.1989 183.308 82.9029 182.304 82.3111C181.3 81.7192 180.509 80.8646 179.932 79.7472C179.354 78.6297 179.065 77.2898 179.065 75.7273C179.065 74.16 179.357 72.8201 179.939 71.7074C180.521 70.59 181.314 69.7353 182.318 69.1435C183.322 68.5516 184.458 68.2557 185.727 68.2557C186.537 68.2557 187.29 68.3693 187.986 68.5966C188.682 68.8239 189.302 69.1577 189.847 69.598C190.391 70.0336 190.839 70.5687 191.189 71.2031C191.544 71.8329 191.776 72.5526 191.885 73.3622ZM198.943 83.2131C197.877 83.2131 196.954 82.9787 196.173 82.5099C195.392 82.0412 194.786 81.3854 194.355 80.5426C193.929 79.6998 193.716 78.715 193.716 77.5881C193.716 76.4612 193.929 75.474 194.355 74.6264C194.786 73.7789 195.392 73.1207 196.173 72.652C196.954 72.1832 197.877 71.9489 198.943 71.9489C200.008 71.9489 200.931 72.1832 201.713 72.652C202.494 73.1207 203.098 73.7789 203.524 74.6264C203.955 75.474 204.17 76.4612 204.17 77.5881C204.17 78.715 203.955 79.6998 203.524 80.5426C203.098 81.3854 202.494 82.0412 201.713 82.5099C200.931 82.9787 200.008 83.2131 198.943 83.2131ZM198.957 81.1534C199.535 81.1534 200.018 80.9948 200.406 80.6776C200.794 80.3556 201.083 79.9247 201.272 79.3849C201.467 78.8452 201.564 78.2438 201.564 77.581C201.564 76.9134 201.467 76.3097 201.272 75.7699C201.083 75.2254 200.794 74.7921 200.406 74.4702C200.018 74.1482 199.535 73.9872 198.957 73.9872C198.365 73.9872 197.873 74.1482 197.48 74.4702C197.092 74.7921 196.8 75.2254 196.606 75.7699C196.417 76.3097 196.322 76.9134 196.322 77.581C196.322 78.2438 196.417 78.8452 196.606 79.3849C196.8 79.9247 197.092 80.3556 197.48 80.6776C197.873 80.9948 198.365 81.1534 198.957 81.1534ZM206.352 83V72.0909H208.81V73.9446H208.938C209.165 73.3196 209.541 72.8319 210.067 72.4815C210.592 72.1264 211.22 71.9489 211.949 71.9489C212.688 71.9489 213.31 72.1288 213.817 72.4886C214.328 72.8437 214.688 73.3291 214.896 73.9446H215.01C215.251 73.3385 215.659 72.8556 216.232 72.4957C216.809 72.1312 217.493 71.9489 218.284 71.9489C219.288 71.9489 220.107 72.2661 220.741 72.9006C221.376 73.535 221.693 74.4607 221.693 75.6776V83H219.115V76.0753C219.115 75.3982 218.935 74.9034 218.575 74.5909C218.215 74.2737 217.775 74.1151 217.254 74.1151C216.634 74.1151 216.149 74.3092 215.798 74.6974C215.453 75.081 215.28 75.5805 215.28 76.196V83H212.759V75.9688C212.759 75.4053 212.588 74.9555 212.247 74.6193C211.911 74.2831 211.471 74.1151 210.926 74.1151C210.557 74.1151 210.221 74.2098 209.918 74.3991C209.615 74.5838 209.373 74.8466 209.193 75.1875C209.013 75.5237 208.923 75.9167 208.923 76.3665V83H206.352ZM224.301 83V72.0909H226.759V73.9446H226.887C227.114 73.3196 227.49 72.8319 228.016 72.4815C228.542 72.1264 229.169 71.9489 229.898 71.9489C230.637 71.9489 231.259 72.1288 231.766 72.4886C232.277 72.8437 232.637 73.3291 232.846 73.9446H232.959C233.201 73.3385 233.608 72.8556 234.181 72.4957C234.758 72.1312 235.443 71.9489 236.233 71.9489C237.237 71.9489 238.056 72.2661 238.691 72.9006C239.325 73.535 239.642 74.4607 239.642 75.6776V83H237.064V76.0753C237.064 75.3982 236.884 74.9034 236.525 74.5909C236.165 74.2737 235.724 74.1151 235.203 74.1151C234.583 74.1151 234.098 74.3092 233.748 74.6974C233.402 75.081 233.229 75.5805 233.229 76.196V83H230.708V75.9688C230.708 75.4053 230.537 74.9555 230.196 74.6193C229.86 74.2831 229.42 74.1151 228.875 74.1151C228.506 74.1151 228.17 74.2098 227.867 74.3991C227.564 74.5838 227.322 74.8466 227.142 75.1875C226.962 75.5237 226.873 75.9167 226.873 76.3665V83H224.301ZM247.08 83.2131C245.987 83.2131 245.042 82.9858 244.246 82.5312C243.456 82.072 242.847 81.4233 242.421 80.5852C241.995 79.7424 241.782 78.7505 241.782 77.6094C241.782 76.4872 241.995 75.5024 242.421 74.6548C242.852 73.8026 243.453 73.1397 244.225 72.6662C244.997 72.188 245.904 71.9489 246.945 71.9489C247.618 71.9489 248.252 72.0578 248.849 72.2756C249.45 72.4886 249.98 72.8201 250.44 73.2699C250.904 73.7197 251.268 74.2926 251.533 74.9886C251.799 75.6799 251.931 76.5038 251.931 77.4602V78.2486H242.989V76.5156H249.467C249.462 76.0232 249.355 75.5852 249.147 75.2017C248.939 74.8134 248.647 74.508 248.273 74.2855C247.904 74.063 247.473 73.9517 246.981 73.9517C246.455 73.9517 245.994 74.0795 245.596 74.3352C245.198 74.5862 244.888 74.9176 244.665 75.3295C244.448 75.7367 244.336 76.1842 244.332 76.6719V78.1847C244.332 78.8191 244.448 79.3636 244.68 79.8182C244.912 80.268 245.236 80.6136 245.653 80.8551C246.069 81.0919 246.557 81.2102 247.116 81.2102C247.49 81.2102 247.828 81.1581 248.131 81.054C248.434 80.9451 248.697 80.7865 248.92 80.5781C249.142 80.3698 249.31 80.1117 249.424 79.804L251.825 80.0739C251.673 80.7083 251.384 81.2623 250.958 81.7358C250.537 82.2045 249.997 82.5691 249.339 82.8295C248.681 83.0852 247.928 83.2131 247.08 83.2131ZM256.677 76.608V83H254.106V72.0909H256.564V73.9446H256.691C256.942 73.3338 257.342 72.8485 257.892 72.4886C258.446 72.1288 259.13 71.9489 259.944 71.9489C260.697 71.9489 261.353 72.1098 261.912 72.4318C262.475 72.7538 262.911 73.2202 263.218 73.831C263.531 74.4418 263.685 75.1828 263.68 76.054V83H261.109V76.4517C261.109 75.7225 260.92 75.152 260.541 74.7401C260.167 74.3281 259.648 74.1222 258.985 74.1222C258.536 74.1222 258.136 74.2216 257.785 74.4205C257.44 74.6146 257.167 74.8963 256.968 75.2656C256.774 75.6349 256.677 76.0824 256.677 76.608ZM271.741 72.0909V74.0795H265.47V72.0909H271.741ZM267.018 69.4773H269.589V79.7188C269.589 80.0644 269.641 80.3295 269.745 80.5142C269.854 80.6941 269.996 80.8172 270.172 80.8835C270.347 80.9498 270.541 80.983 270.754 80.983C270.915 80.983 271.062 80.9711 271.194 80.9474C271.332 80.9238 271.436 80.9025 271.507 80.8835L271.94 82.8935C271.803 82.9408 271.606 82.9929 271.35 83.0497C271.1 83.1065 270.792 83.1397 270.427 83.1491C269.783 83.1681 269.203 83.071 268.687 82.858C268.171 82.6402 267.761 82.304 267.458 81.8494C267.16 81.3949 267.013 80.8267 267.018 80.1449V69.4773ZM282.357 74.9744L280.013 75.2301C279.947 74.9934 279.831 74.7708 279.665 74.5625C279.504 74.3542 279.287 74.1861 279.012 74.0582C278.737 73.9304 278.401 73.8665 278.004 73.8665C277.469 73.8665 277.019 73.9825 276.654 74.2145C276.294 74.4465 276.117 74.7472 276.121 75.1165C276.117 75.4337 276.233 75.6918 276.469 75.8906C276.711 76.0895 277.109 76.2528 277.663 76.3807L279.523 76.7784C280.556 77.0009 281.323 77.3537 281.825 77.8366C282.331 78.3196 282.587 78.9517 282.592 79.733C282.587 80.4195 282.386 81.0256 281.988 81.5511C281.595 82.072 281.048 82.4792 280.347 82.7727C279.647 83.0663 278.842 83.2131 277.933 83.2131C276.597 83.2131 275.522 82.9337 274.708 82.375C273.894 81.8116 273.408 81.0279 273.252 80.0241L275.759 79.7827C275.873 80.2751 276.114 80.6468 276.484 80.8977C276.853 81.1487 277.334 81.2741 277.925 81.2741C278.536 81.2741 279.026 81.1487 279.396 80.8977C279.77 80.6468 279.957 80.3366 279.957 79.9673C279.957 79.6548 279.836 79.3968 279.594 79.1932C279.358 78.9896 278.988 78.8333 278.487 78.7244L276.626 78.3338C275.579 78.116 274.805 77.7491 274.303 77.233C273.801 76.7121 273.553 76.054 273.558 75.2585C273.553 74.5862 273.735 74.0038 274.104 73.5114C274.478 73.0142 274.997 72.6307 275.66 72.3608C276.327 72.0862 277.097 71.9489 277.968 71.9489C279.246 71.9489 280.253 72.2211 280.987 72.7656C281.725 73.3101 282.182 74.0464 282.357 74.9744Z" fill="black"/>
<rect x="322" y="61" width="31" height="29" fill="#EAB308"/>
<rect x="456" y="64" width="31" height="29" fill="#020617"/>
<path d="M368.435 83V68.4545H371.07V80.7912H377.476V83H368.435ZM379.649 83V72.0909H382.22V83H379.649ZM380.942 70.5426C380.535 70.5426 380.184 70.4077 379.891 70.1378C379.597 69.8632 379.45 69.5341 379.45 69.1506C379.45 68.7623 379.597 68.4332 379.891 68.1634C380.184 67.8887 380.535 67.7514 380.942 67.7514C381.354 67.7514 381.704 67.8887 381.993 68.1634C382.286 68.4332 382.433 68.7623 382.433 69.1506C382.433 69.5341 382.286 69.8632 381.993 70.1378C381.704 70.4077 381.354 70.5426 380.942 70.5426ZM387.208 79.5767L387.201 76.473H387.613L391.533 72.0909H394.537L389.715 77.4602H389.182L387.208 79.5767ZM384.864 83V68.4545H387.435V83H384.864ZM391.711 83L388.159 78.0355L389.892 76.2244L394.786 83H391.711ZM400.631 83.2131C399.537 83.2131 398.593 82.9858 397.797 82.5312C397.007 82.072 396.398 81.4233 395.972 80.5852C395.546 79.7424 395.333 78.7505 395.333 77.6094C395.333 76.4872 395.546 75.5024 395.972 74.6548C396.403 73.8026 397.004 73.1397 397.776 72.6662C398.548 72.188 399.454 71.9489 400.496 71.9489C401.168 71.9489 401.803 72.0578 402.4 72.2756C403.001 72.4886 403.531 72.8201 403.99 73.2699C404.454 73.7197 404.819 74.2926 405.084 74.9886C405.349 75.6799 405.482 76.5038 405.482 77.4602V78.2486H396.54V76.5156H403.017C403.013 76.0232 402.906 75.5852 402.698 75.2017C402.489 74.8134 402.198 74.508 401.824 74.2855C401.455 74.063 401.024 73.9517 400.532 73.9517C400.006 73.9517 399.544 74.0795 399.147 74.3352C398.749 74.5862 398.439 74.9176 398.216 75.3295C397.998 75.7367 397.887 76.1842 397.882 76.6719V78.1847C397.882 78.8191 397.998 79.3636 398.23 79.8182C398.462 80.268 398.787 80.6136 399.203 80.8551C399.62 81.0919 400.108 81.2102 400.667 81.2102C401.041 81.2102 401.379 81.1581 401.682 81.054C401.985 80.9451 402.248 80.7865 402.471 80.5781C402.693 80.3698 402.861 80.1117 402.975 79.804L405.375 80.0739C405.224 80.7083 404.935 81.2623 404.509 81.7358C404.087 82.2045 403.548 82.5691 402.89 82.8295C402.231 83.0852 401.479 83.2131 400.631 83.2131ZM416.279 74.9744L413.935 75.2301C413.869 74.9934 413.753 74.7708 413.587 74.5625C413.426 74.3542 413.209 74.1861 412.934 74.0582C412.659 73.9304 412.323 73.8665 411.925 73.8665C411.39 73.8665 410.941 73.9825 410.576 74.2145C410.216 74.4465 410.039 74.7472 410.043 75.1165C410.039 75.4337 410.155 75.6918 410.391 75.8906C410.633 76.0895 411.031 76.2528 411.585 76.3807L413.445 76.7784C414.478 77.0009 415.245 77.3537 415.746 77.8366C416.253 78.3196 416.509 78.9517 416.513 79.733C416.509 80.4195 416.308 81.0256 415.91 81.5511C415.517 82.072 414.97 82.4792 414.269 82.7727C413.568 83.0663 412.763 83.2131 411.854 83.2131C410.519 83.2131 409.444 82.9337 408.63 82.375C407.816 81.8116 407.33 81.0279 407.174 80.0241L409.681 79.7827C409.795 80.2751 410.036 80.6468 410.406 80.8977C410.775 81.1487 411.255 81.2741 411.847 81.2741C412.458 81.2741 412.948 81.1487 413.317 80.8977C413.692 80.6468 413.879 80.3366 413.879 79.9673C413.879 79.6548 413.758 79.3968 413.516 79.1932C413.28 78.9896 412.91 78.8333 412.408 78.7244L410.548 78.3338C409.501 78.116 408.727 77.7491 408.225 77.233C407.723 76.7121 407.475 76.054 407.479 75.2585C407.475 74.5862 407.657 74.0038 408.026 73.5114C408.4 73.0142 408.919 72.6307 409.582 72.3608C410.249 72.0862 411.019 71.9489 411.89 71.9489C413.168 71.9489 414.174 72.2211 414.908 72.7656C415.647 73.3101 416.104 74.0464 416.279 74.9744Z" fill="black"/>
<path d="M502.435 86V71.4545H508.003C509.054 71.4545 509.928 71.6203 510.624 71.9517C511.324 72.2784 511.848 72.7259 512.193 73.294C512.544 73.8622 512.719 74.5062 512.719 75.2259C512.719 75.8177 512.605 76.3243 512.378 76.7457C512.151 77.1624 511.845 77.5009 511.462 77.7614C511.078 78.0218 510.65 78.2088 510.176 78.3224V78.4645C510.692 78.4929 511.187 78.6515 511.661 78.9403C512.139 79.2244 512.529 79.6269 512.832 80.1477C513.135 80.6686 513.287 81.2983 513.287 82.0369C513.287 82.7898 513.105 83.4669 512.74 84.0682C512.375 84.6648 511.826 85.1359 511.092 85.4815C510.358 85.8272 509.435 86 508.322 86H502.435ZM505.07 83.7983H507.903C508.86 83.7983 509.549 83.616 509.97 83.2514C510.396 82.8821 510.609 82.4086 510.609 81.831C510.609 81.4001 510.503 81.0118 510.29 80.6662C510.077 80.3158 509.774 80.0412 509.381 79.8423C508.988 79.6387 508.519 79.5369 507.974 79.5369H505.07V83.7983ZM505.07 77.6406H507.676C508.131 77.6406 508.54 77.5578 508.905 77.392C509.269 77.2216 509.556 76.9825 509.764 76.6747C509.977 76.3622 510.084 75.9929 510.084 75.5668C510.084 75.0033 509.885 74.5393 509.487 74.1747C509.094 73.8101 508.509 73.6278 507.733 73.6278H505.07V77.6406ZM518.037 71.4545V86H515.466V71.4545H518.037ZM525.439 86.2131C524.374 86.2131 523.45 85.9787 522.669 85.5099C521.888 85.0412 521.282 84.3854 520.851 83.5426C520.425 82.6998 520.212 81.715 520.212 80.5881C520.212 79.4612 520.425 78.474 520.851 77.6264C521.282 76.7789 521.888 76.1207 522.669 75.652C523.45 75.1832 524.374 74.9489 525.439 74.9489C526.504 74.9489 527.428 75.1832 528.209 75.652C528.99 76.1207 529.594 76.7789 530.02 77.6264C530.451 78.474 530.666 79.4612 530.666 80.5881C530.666 81.715 530.451 82.6998 530.02 83.5426C529.594 84.3854 528.99 85.0412 528.209 85.5099C527.428 85.9787 526.504 86.2131 525.439 86.2131ZM525.453 84.1534C526.031 84.1534 526.514 83.9948 526.902 83.6776C527.29 83.3556 527.579 82.9247 527.768 82.3849C527.963 81.8452 528.06 81.2438 528.06 80.581C528.06 79.9134 527.963 79.3097 527.768 78.7699C527.579 78.2254 527.29 77.7921 526.902 77.4702C526.514 77.1482 526.031 76.9872 525.453 76.9872C524.861 76.9872 524.369 77.1482 523.976 77.4702C523.588 77.7921 523.296 78.2254 523.102 78.7699C522.913 79.3097 522.818 79.9134 522.818 80.581C522.818 81.2438 522.913 81.8452 523.102 82.3849C523.296 82.9247 523.588 83.3556 523.976 83.6776C524.369 83.9948 524.861 84.1534 525.453 84.1534ZM537.593 90.3182C536.669 90.3182 535.876 90.1927 535.213 89.9418C534.551 89.6955 534.018 89.3641 533.615 88.9474C533.213 88.5308 532.934 88.0691 532.777 87.5625L535.093 87.0014C535.197 87.2145 535.348 87.4252 535.547 87.6335C535.746 87.8466 536.014 88.0218 536.35 88.1591C536.691 88.3011 537.119 88.3722 537.635 88.3722C538.364 88.3722 538.968 88.1946 539.446 87.8395C539.925 87.4891 540.164 86.9115 540.164 86.1065V84.0398H540.036C539.903 84.3049 539.709 84.5772 539.453 84.8565C539.203 85.1359 538.869 85.3703 538.452 85.5597C538.04 85.7491 537.522 85.8438 536.897 85.8438C536.059 85.8438 535.299 85.6473 534.617 85.2543C533.94 84.8565 533.4 84.2647 532.998 83.4787C532.6 82.688 532.401 81.6984 532.401 80.5099C532.401 79.312 532.6 78.3011 532.998 77.4773C533.4 76.6487 533.942 76.0213 534.624 75.5952C535.306 75.1643 536.066 74.9489 536.904 74.9489C537.543 74.9489 538.069 75.0578 538.48 75.2756C538.897 75.4886 539.229 75.7467 539.475 76.0497C539.721 76.348 539.908 76.6297 540.036 76.8949H540.178V75.0909H542.713V86.1776C542.713 87.1103 542.491 87.8821 542.046 88.4929C541.601 89.1037 540.992 89.5606 540.221 89.8636C539.449 90.1667 538.573 90.3182 537.593 90.3182ZM537.614 83.8267C538.158 83.8267 538.623 83.6941 539.006 83.429C539.39 83.1638 539.681 82.7827 539.88 82.2855C540.078 81.7884 540.178 81.1918 540.178 80.4957C540.178 79.8092 540.078 79.2079 539.88 78.6918C539.685 78.1757 539.397 77.7756 539.013 77.4915C538.634 77.2027 538.168 77.0582 537.614 77.0582C537.041 77.0582 536.563 77.2074 536.179 77.5057C535.796 77.804 535.507 78.2135 535.313 78.7344C535.119 79.2505 535.022 79.8376 535.022 80.4957C535.022 81.1634 535.119 81.7481 535.313 82.25C535.512 82.7472 535.803 83.1354 536.186 83.4148C536.575 83.6894 537.051 83.8267 537.614 83.8267ZM553.971 77.9744L551.627 78.2301C551.56 77.9934 551.444 77.7708 551.279 77.5625C551.118 77.3542 550.9 77.1861 550.625 77.0582C550.351 76.9304 550.015 76.8665 549.617 76.8665C549.082 76.8665 548.632 76.9825 548.267 77.2145C547.908 77.4465 547.73 77.7472 547.735 78.1165C547.73 78.4337 547.846 78.6918 548.083 78.8906C548.324 79.0895 548.722 79.2528 549.276 79.3807L551.137 79.7784C552.169 80.0009 552.936 80.3537 553.438 80.8366C553.944 81.3196 554.2 81.9517 554.205 82.733C554.2 83.4195 553.999 84.0256 553.601 84.5511C553.208 85.072 552.661 85.4792 551.961 85.7727C551.26 86.0663 550.455 86.2131 549.546 86.2131C548.211 86.2131 547.136 85.9337 546.321 85.375C545.507 84.8116 545.022 84.0279 544.865 83.0241L547.373 82.7827C547.486 83.2751 547.728 83.6468 548.097 83.8977C548.466 84.1487 548.947 84.2741 549.539 84.2741C550.15 84.2741 550.64 84.1487 551.009 83.8977C551.383 83.6468 551.57 83.3366 551.57 82.9673C551.57 82.6548 551.449 82.3968 551.208 82.1932C550.971 81.9896 550.602 81.8333 550.1 81.7244L548.239 81.3338C547.193 81.116 546.418 80.7491 545.917 80.233C545.415 79.7121 545.166 79.054 545.171 78.2585C545.166 77.5862 545.348 77.0038 545.718 76.5114C546.092 76.0142 546.61 75.6307 547.273 75.3608C547.941 75.0862 548.71 74.9489 549.581 74.9489C550.86 74.9489 551.866 75.2211 552.6 75.7656C553.338 76.3101 553.795 77.0464 553.971 77.9744Z" fill="black"/>
</svg>
