<svg width="35" height="35" viewBox="0 0 35 35" fill="none" xmlns="http://www.w3.org/2000/svg">
<path d="M20.4167 11.6663V8.74967C20.4167 7.97613 20.1094 7.23426 19.5624 6.68728C19.0154 6.1403 18.2735 5.83301 17.5 5.83301H7.29167C6.51812 5.83301 5.77625 6.1403 5.22927 6.68728C4.68229 7.23426 4.375 7.97613 4.375 8.74967V26.2497C4.375 27.0232 4.68229 27.7651 5.22927 28.3121C5.77625 28.8591 6.51812 29.1663 7.29167 29.1663H17.5C18.2735 29.1663 19.0154 28.8591 19.5624 28.3121C20.1094 27.7651 20.4167 27.0232 20.4167 26.2497V23.333" stroke="white" stroke-width="2" stroke-linecap="round" stroke-linejoin="round"/>
<path d="M13.125 17.5H30.625M30.625 17.5L26.25 13.125M30.625 17.5L26.25 21.875" stroke="white" stroke-width="2" stroke-linecap="round" stroke-linejoin="round"/>
</svg>
